<svg xmlns="http://www.w3.org/2000/svg" xmlns:xlink="http://www.w3.org/1999/xlink" width="500" zoomAndPan="magnify" viewBox="0 0 375 374.999991" height="500" preserveAspectRatio="xMidYMid meet" version="1.0"><defs><g/><clipPath id="395949beef"><path d="M 85 140 L 180 140 L 180 235 L 85 235 Z M 85 140 " clip-rule="nonzero"/></clipPath><clipPath id="e4d5fb5b8b"><path d="M 81.890625 144.730469 L 175.308594 136.847656 L 183.191406 230.265625 L 89.773438 238.148438 Z M 81.890625 144.730469 " clip-rule="nonzero"/></clipPath><clipPath id="36f224bcdb"><path d="M 81.890625 144.730469 L 175.308594 136.847656 L 183.191406 230.265625 L 89.773438 238.148438 Z M 81.890625 144.730469 " clip-rule="nonzero"/></clipPath><clipPath id="ae421158f4"><path d="M 81.890625 144.730469 L 175.308594 136.847656 L 183.191406 230.265625 L 89.773438 238.148438 Z M 81.890625 144.730469 " clip-rule="nonzero"/></clipPath><clipPath id="23bc1c0fda"><path d="M 155 204 L 159 204 L 159 211 L 155 211 Z M 155 204 " clip-rule="nonzero"/></clipPath><clipPath id="3e27e466e0"><path d="M 81.890625 144.730469 L 175.308594 136.847656 L 183.191406 230.265625 L 89.773438 238.148438 Z M 81.890625 144.730469 " clip-rule="nonzero"/></clipPath><clipPath id="49b3770a64"><path d="M 81.890625 144.730469 L 175.308594 136.847656 L 183.191406 230.265625 L 89.773438 238.148438 Z M 81.890625 144.730469 " clip-rule="nonzero"/></clipPath><clipPath id="3f8613f9d7"><path d="M 81.890625 144.730469 L 175.308594 136.847656 L 183.191406 230.265625 L 89.773438 238.148438 Z M 81.890625 144.730469 " clip-rule="nonzero"/></clipPath><clipPath id="f68a10997c"><path d="M 170 191 L 171 191 L 171 193 L 170 193 Z M 170 191 " clip-rule="nonzero"/></clipPath><clipPath id="2cb97831d5"><path d="M 81.890625 144.730469 L 175.308594 136.847656 L 183.191406 230.265625 L 89.773438 238.148438 Z M 81.890625 144.730469 " clip-rule="nonzero"/></clipPath><clipPath id="08e3bbeaf8"><path d="M 81.890625 144.730469 L 175.308594 136.847656 L 183.191406 230.265625 L 89.773438 238.148438 Z M 81.890625 144.730469 " clip-rule="nonzero"/></clipPath><clipPath id="d6e7f3e24a"><path d="M 81.890625 144.730469 L 175.308594 136.847656 L 183.191406 230.265625 L 89.773438 238.148438 Z M 81.890625 144.730469 " clip-rule="nonzero"/></clipPath><clipPath id="42a67dc8ba"><path d="M 153 160 L 155 160 L 155 162 L 153 162 Z M 153 160 " clip-rule="nonzero"/></clipPath><clipPath id="ca74cec55d"><path d="M 81.890625 144.730469 L 175.308594 136.847656 L 183.191406 230.265625 L 89.773438 238.148438 Z M 81.890625 144.730469 " clip-rule="nonzero"/></clipPath><clipPath id="86e8f62c9e"><path d="M 81.890625 144.730469 L 175.308594 136.847656 L 183.191406 230.265625 L 89.773438 238.148438 Z M 81.890625 144.730469 " clip-rule="nonzero"/></clipPath><clipPath id="e25aac69fc"><path d="M 81.890625 144.730469 L 175.308594 136.847656 L 183.191406 230.265625 L 89.773438 238.148438 Z M 81.890625 144.730469 " clip-rule="nonzero"/></clipPath><clipPath id="7a89bcb2a4"><path d="M 122 165 L 128 165 L 128 168 L 122 168 Z M 122 165 " clip-rule="nonzero"/></clipPath><clipPath id="75f8a7ca3e"><path d="M 81.890625 144.730469 L 175.308594 136.847656 L 183.191406 230.265625 L 89.773438 238.148438 Z M 81.890625 144.730469 " clip-rule="nonzero"/></clipPath><clipPath id="3dc7b5a661"><path d="M 81.890625 144.730469 L 175.308594 136.847656 L 183.191406 230.265625 L 89.773438 238.148438 Z M 81.890625 144.730469 " clip-rule="nonzero"/></clipPath><clipPath id="dc1618d4bf"><path d="M 81.890625 144.730469 L 175.308594 136.847656 L 183.191406 230.265625 L 89.773438 238.148438 Z M 81.890625 144.730469 " clip-rule="nonzero"/></clipPath><clipPath id="eef19320db"><path d="M 193.222656 182.636719 L 315.855469 182.636719 L 315.855469 191.070312 L 193.222656 191.070312 Z M 193.222656 182.636719 " clip-rule="nonzero"/></clipPath><clipPath id="39cc8bd3ac"><path d="M 193.222656 186.851562 C 193.222656 184.523438 195.109375 182.636719 197.441406 182.636719 L 311.632812 182.636719 C 313.960938 182.636719 315.851562 184.523438 315.851562 186.851562 C 315.851562 189.183594 313.960938 191.070312 311.632812 191.070312 L 197.441406 191.070312 C 195.109375 191.070312 193.222656 189.183594 193.222656 186.851562 Z M 193.222656 186.851562 " clip-rule="nonzero"/></clipPath><clipPath id="56124edb4f"><path d="M 93 197 L 133 197 L 133 230 L 93 230 Z M 93 197 " clip-rule="nonzero"/></clipPath><clipPath id="289e10a1eb"><path d="M 161.054688 240.035156 L 92.632812 223.050781 L 112.867188 141.523438 L 181.292969 158.507812 Z M 161.054688 240.035156 " clip-rule="nonzero"/></clipPath><clipPath id="724737c3dd"><path d="M 161.054688 240.035156 L 92.632812 223.050781 L 112.867188 141.523438 L 181.292969 158.507812 Z M 161.054688 240.035156 " clip-rule="nonzero"/></clipPath><clipPath id="c493f6938e"><path d="M 131 156 L 179 156 L 179 208 L 131 208 Z M 131 156 " clip-rule="nonzero"/></clipPath><clipPath id="d985fb37ed"><path d="M 161.054688 240.035156 L 92.632812 223.050781 L 112.867188 141.523438 L 181.292969 158.507812 Z M 161.054688 240.035156 " clip-rule="nonzero"/></clipPath><clipPath id="0d7bb290e9"><path d="M 161.054688 240.035156 L 92.632812 223.050781 L 112.867188 141.523438 L 181.292969 158.507812 Z M 161.054688 240.035156 " clip-rule="nonzero"/></clipPath><clipPath id="68378ad11f"><path d="M 70 132 L 197.3125 132 L 197.3125 252.871094 L 70 252.871094 Z M 70 132 " clip-rule="nonzero"/></clipPath><clipPath id="8aa75c6b9d"><path d="M 103 129.121094 L 106 129.121094 L 106 132 L 103 132 Z M 103 129.121094 " clip-rule="nonzero"/></clipPath><clipPath id="ce5011151a"><path d="M 67.5625 180 L 69 180 L 69 189 L 67.5625 189 Z M 67.5625 180 " clip-rule="nonzero"/></clipPath><clipPath id="9c955381da"><path d="M 67.5625 192 L 70 192 L 70 198 L 67.5625 198 Z M 67.5625 192 " clip-rule="nonzero"/></clipPath></defs><g clip-path="url(#395949beef)"><g clip-path="url(#e4d5fb5b8b)"><g clip-path="url(#36f224bcdb)"><g clip-path="url(#ae421158f4)"><path fill="#ffffff" d="M 128.601562 140.789062 C 116.125 141.84375 104.804688 147.691406 96.726562 157.257812 C 88.648438 166.824219 84.777344 178.964844 85.832031 191.441406 C 86.882812 203.917969 92.730469 215.238281 102.296875 223.316406 C 111.867188 231.394531 124.003906 235.261719 136.480469 234.210938 C 148.960938 233.15625 160.277344 227.308594 168.355469 217.742188 C 176.433594 208.175781 180.304688 196.035156 179.25 183.558594 C 178.199219 171.082031 172.351562 159.761719 162.78125 151.683594 C 153.214844 143.605469 141.078125 139.738281 128.601562 140.789062 Z M 102.75 153.683594 C 102.71875 153.773438 102.6875 153.867188 102.652344 153.9375 C 102.554688 154.136719 102.207031 154.550781 102.207031 154.550781 L 101.699219 154.644531 C 102.042969 154.320312 102.394531 154 102.75 153.683594 Z M 88.242188 195.902344 C 88.355469 196.035156 88.472656 196.148438 88.589844 196.222656 C 89.074219 196.539062 89.066406 196.4375 89.652344 196.746094 C 90.238281 197.054688 92.289062 197.1875 92.289062 197.1875 L 93.300781 197.101562 L 95.242188 198.3125 C 95.242188 198.3125 95.945312 198.203125 96.101562 198.242188 C 96.257812 198.277344 97.277344 199.46875 97.277344 199.46875 L 98.085938 199.398438 L 99.019531 200.1875 L 99.734375 200.175781 L 100.167969 199.757812 L 100.75 200.257812 L 100.980469 200.902344 L 101.027344 201.304688 L 101.125 202.023438 L 100.515625 202.9375 L 100.105469 203.523438 L 100.3125 205.992188 L 101.566406 207.265625 L 102.316406 208.976562 L 102.375 209.109375 L 102.78125 209.875 L 103.996094 210.652344 L 105.046875 211.328125 C 105.046875 211.328125 105.285156 211.882812 105.3125 212.226562 C 105.34375 212.566406 105.359375 213.253906 105.359375 213.253906 L 105.335938 214.328125 L 105.148438 216.597656 C 105.148438 216.597656 105.042969 218.558594 105.019531 219.171875 C 104.996094 219.785156 104.753906 220.992188 104.753906 220.992188 C 104.753906 220.992188 104.539062 222.082031 104.460938 222.546875 C 104.453125 222.605469 104.441406 222.664062 104.433594 222.722656 C 96.226562 216.167969 90.300781 206.78125 88.242188 195.902344 Z M 136.332031 232.425781 C 125.875 233.308594 115.941406 230.53125 107.792969 225.164062 L 107.875 224.933594 L 108.019531 224.574219 L 108.351562 223.746094 L 108.714844 223.101562 L 108.667969 222.535156 L 109.753906 221.335938 L 110.75 220.484375 C 110.75 220.484375 111.351562 220.082031 111.585938 219.703125 C 111.640625 219.613281 111.675781 219.527344 111.679688 219.449219 C 111.699219 219.03125 111.625 218.773438 111.621094 218.765625 L 112.617188 218.109375 C 112.617188 218.109375 113.335938 218.050781 113.832031 217.585938 C 113.957031 217.46875 114.054688 217.335938 114.128906 217.199219 C 114.351562 216.785156 114.382812 216.351562 114.382812 216.351562 L 115.324219 213.941406 C 115.332031 213.933594 115.929688 213.390625 116.457031 212.890625 C 116.988281 212.386719 116.972656 212.617188 117.1875 212.445312 C 117.402344 212.273438 118.089844 211.796875 118.089844 211.796875 L 118.089844 211.792969 C 118.089844 211.792969 118.722656 210.667969 118.722656 210.667969 L 119.019531 209.191406 C 119.019531 209.191406 118.84375 208.019531 118.855469 207.714844 C 118.855469 207.695312 118.859375 207.675781 118.867188 207.664062 C 118.96875 207.4375 119.6875 207.644531 119.6875 207.644531 C 119.6875 207.644531 119.691406 207.640625 119.691406 207.640625 L 120.613281 204.085938 L 119.9375 203.757812 C 119.9375 203.757812 117.921875 203.46875 117.339844 203.328125 C 116.753906 203.1875 115.308594 202.851562 115.308594 202.851562 L 114.140625 202.585938 L 113.542969 201.832031 L 112.960938 200.832031 C 112.960938 200.832031 111.570312 200.222656 110.988281 200.117188 C 110.40625 200.011719 109.585938 199.8125 109.585938 199.8125 C 109.585938 199.8125 109.046875 199.324219 108.953125 199.140625 C 108.863281 198.957031 107.648438 198.601562 107.648438 198.601562 L 105.304688 198.480469 L 104.03125 198.191406 L 103.539062 197.953125 L 102.46875 198.4375 L 101.65625 199.234375 L 101.222656 199.691406 L 100.988281 199.902344 L 100.914062 199.980469 L 100.574219 199.53125 L 99.742188 199.359375 C 99.742188 199.359375 99.699219 199.617188 99.640625 199.722656 C 99.628906 199.746094 99.613281 199.761719 99.601562 199.765625 C 99.523438 199.785156 99.203125 199.75 99.203125 199.75 C 99.203125 199.75 98.828125 199.511719 98.667969 199.4375 C 98.507812 199.359375 98.386719 199.269531 98.386719 199.269531 L 97.996094 198.753906 L 97.925781 198.210938 L 97.921875 197.394531 C 97.902344 197.195312 97.898438 196.824219 97.898438 196.824219 C 97.898438 196.824219 97.0625 196.742188 96.835938 196.761719 C 96.609375 196.78125 95.984375 196.820312 95.949219 196.820312 C 95.910156 196.824219 95.808594 197 95.78125 196.671875 C 95.753906 196.339844 95.8125 195.6875 95.8125 195.6875 L 95.90625 194.964844 L 96.09375 194.46875 L 95.859375 194.183594 L 95.128906 194.398438 L 95.132812 194.402344 L 95.128906 194.402344 L 94.742188 195.234375 L 94.257812 195.601562 L 93.257812 195.78125 L 92.832031 195.71875 C 92.832031 195.71875 92.394531 195.507812 92.289062 195.382812 C 92.179688 195.257812 91.914062 194.574219 91.914062 194.574219 C 91.914062 194.574219 91.574219 193.722656 91.550781 193.417969 C 91.523438 193.117188 91.449219 192.703125 91.488281 192.488281 C 91.527344 192.273438 91.53125 192.0625 91.691406 191.695312 C 91.84375 191.339844 92.035156 190.992188 92.046875 190.96875 C 92.050781 190.96875 92.363281 190.636719 92.550781 190.601562 C 92.742188 190.566406 93.25 190.464844 93.25 190.464844 C 93.25 190.464844 94.105469 190.414062 94.242188 190.441406 C 94.375 190.46875 94.964844 190.417969 94.964844 190.417969 L 95.207031 190.320312 L 95.78125 190.101562 C 95.78125 190.101562 96.277344 189.867188 96.75 190.054688 C 97.226562 190.246094 97.410156 190.171875 97.597656 190.558594 C 97.78125 190.945312 98.019531 191.269531 98.019531 191.269531 C 98.019531 191.269531 98.242188 191.421875 98.417969 191.695312 C 98.59375 191.964844 99.125 191.902344 99.125 191.902344 L 99.125 191.898438 L 98.480469 190.578125 L 98.335938 189.769531 L 98.792969 188.429688 L 99.65625 188.015625 L 100.902344 187.105469 L 100.007812 185.542969 L 101.140625 184.503906 L 101.949219 183.824219 L 102.601562 184.28125 L 102.597656 184.277344 C 102.597656 184.277344 102.601562 184.277344 102.601562 184.277344 L 102.804688 183.0625 L 103.5625 182.082031 C 103.5625 182.082031 104.101562 181.832031 104.179688 181.828125 C 104.214844 181.824219 104.308594 181.96875 104.398438 182.117188 L 104.667969 182.71875 L 105.355469 182.734375 L 105.355469 182.730469 L 105.492188 182.203125 L 106.242188 182.058594 L 107.183594 182.121094 L 107.207031 181.664062 L 107.539062 181.328125 C 107.539062 181.328125 107.542969 181.328125 107.542969 181.328125 L 107.425781 181.078125 L 106.972656 181.078125 L 105.375 180.574219 L 105.273438 180.253906 L 105.589844 179.207031 L 106.410156 178.65625 L 107.039062 178.246094 L 108.21875 177.917969 C 108.21875 177.917969 108.128906 178.917969 108.171875 179.144531 C 108.175781 179.171875 108.167969 179.199219 108.148438 179.222656 C 108.015625 179.414062 107.355469 179.566406 107.355469 179.566406 C 107.355469 179.566406 107.355469 179.570312 107.355469 179.570312 L 107.683594 180.207031 L 109.40625 180.402344 C 109.40625 180.402344 110.503906 180.675781 110.550781 180.59375 C 110.550781 180.59375 110.550781 180.589844 110.550781 180.589844 C 110.59375 180.511719 110.574219 179.644531 110.574219 179.644531 L 109.289062 178.308594 L 108.667969 177.59375 L 108.078125 176.0625 L 106.179688 174.082031 L 105.8125 173.652344 L 104.71875 172.0625 L 103.65625 172.585938 C 103.65625 172.585938 102.585938 173.058594 102.425781 172.996094 C 102.269531 172.933594 101.507812 171.160156 101.507812 171.160156 L 99.785156 170.695312 C 99.785156 170.695312 98.882812 170.425781 98.652344 170.867188 C 98.652344 170.871094 98.652344 170.867188 98.652344 170.871094 C 98.421875 171.308594 98.210938 171.976562 98.238281 172.28125 C 98.261719 172.585938 98.5625 173.402344 98.5625 173.402344 L 98.707031 174.230469 L 98.617188 174.945312 L 98.804688 175.367188 C 98.804688 175.367188 98.316406 176.367188 98.296875 176.597656 C 98.277344 176.828125 97.945312 177.386719 97.882812 177.546875 C 97.8125 177.703125 96.234375 176.613281 96.234375 176.613281 L 95 175.574219 L 92.847656 174.988281 C 92.847656 174.988281 92.484375 174.753906 92.070312 174.367188 C 91.652344 173.980469 90.789062 173.238281 90.789062 173.238281 L 91.988281 171.164062 C 91.988281 171.164062 92.570312 170.410156 92.800781 170.011719 C 92.832031 169.953125 92.859375 169.902344 92.875 169.863281 C 92.941406 169.695312 92.910156 169.375 92.988281 169.21875 C 93.058594 169.082031 93.214844 169.078125 93.601562 169.421875 C 94.429688 170.152344 94.738281 170.203125 95.007812 170.257812 C 95.28125 170.3125 95.785156 170.382812 95.785156 170.382812 L 96.1875 169.699219 L 95.921875 167.925781 C 95.921875 167.925781 95.933594 167.917969 95.941406 167.90625 C 95.96875 167.851562 96.023438 167.640625 95.980469 166.769531 C 95.921875 165.644531 95.992188 164.730469 95.996094 164.707031 C 96.007812 164.707031 97.113281 164.804688 97.769531 164.902344 C 98.429688 164.996094 99.242188 164.660156 99.664062 165.160156 C 100.078125 165.644531 100.664062 167.871094 100.542969 168.164062 C 100.539062 168.171875 100.535156 168.179688 100.53125 168.183594 C 100.519531 168.195312 100.507812 168.207031 100.5 168.21875 C 100.382812 168.402344 100.578125 168.757812 100.578125 168.757812 L 101.40625 169.453125 L 103.21875 169.640625 L 104.113281 169.335938 L 104.109375 169.335938 C 104.109375 169.335938 104.113281 169.335938 104.113281 169.335938 L 102.820312 168.03125 L 103.328125 167.757812 L 104.015625 167.738281 L 104.078125 166.203125 C 104.078125 166.203125 103.386719 165.265625 102.917969 165.152344 C 102.449219 165.039062 101.816406 164.328125 101.816406 164.328125 C 101.816406 164.328125 100.207031 162.933594 99.886719 162.769531 C 99.566406 162.605469 98.757812 162.0625 98.757812 162.0625 L 97.621094 160.398438 L 96.503906 160.722656 L 96.320312 160.699219 C 97.425781 159.203125 98.625 157.777344 99.910156 156.429688 C 100.21875 156.546875 100.378906 156.640625 100.492188 156.792969 C 100.621094 156.972656 100.84375 157.339844 100.84375 157.339844 C 100.84375 157.339844 100.886719 157.871094 101.308594 157.871094 C 101.730469 157.875 102.253906 157.753906 102.253906 157.753906 L 103.464844 157.574219 C 103.464844 157.574219 103.796875 157.433594 104.234375 157.625 C 104.667969 157.816406 105.25 157.921875 105.25 157.921875 L 105.988281 158.507812 C 105.988281 158.507812 106.222656 158.566406 106.402344 158.855469 C 106.578125 159.148438 106.574219 158.652344 106.800781 159.511719 C 107.027344 160.371094 107.21875 160.851562 107.21875 160.851562 C 107.21875 160.851562 107.382812 161.449219 107.484375 161.710938 C 107.582031 161.96875 107.789062 162.179688 107.789062 162.179688 L 108.707031 162.179688 C 108.707031 162.179688 109.054688 162.191406 109.105469 162.339844 C 109.15625 162.488281 109.257812 162.824219 109.269531 162.9375 C 109.269531 162.964844 109.269531 162.988281 109.261719 163.007812 C 109.238281 163.070312 109.167969 163.097656 109.054688 163.105469 C 108.902344 163.117188 108.222656 163.214844 108.222656 163.214844 L 108.324219 163.972656 L 108.609375 164.179688 L 109.296875 164.160156 C 109.296875 164.160156 109.464844 164.375 109.480469 164.527344 C 109.484375 164.601562 109.480469 164.648438 109.457031 164.699219 C 109.429688 164.75 109.386719 164.800781 109.320312 164.882812 C 109.179688 165.046875 108.777344 165.730469 108.777344 165.730469 C 108.777344 165.730469 108.761719 165.671875 108.753906 165.695312 C 108.746094 165.707031 108.742188 165.769531 108.757812 165.964844 C 108.792969 166.382812 108.726562 166.5 109.011719 167.128906 C 109.292969 167.753906 109.453125 168.277344 109.453125 168.277344 C 109.453125 168.277344 109.804688 168.855469 109.894531 169.003906 C 109.984375 169.148438 110.144531 169.210938 110.449219 169.683594 C 110.757812 170.152344 111.265625 170.722656 111.265625 170.722656 L 111.75 171.027344 C 111.75 171.027344 111.90625 171.089844 112.050781 171 C 112.199219 170.914062 112.523438 170.695312 112.523438 170.695312 C 112.523438 170.695312 112.800781 171.703125 113.484375 171.222656 C 113.484375 171.222656 113.488281 171.222656 113.488281 171.222656 L 113.964844 169.652344 L 113.90625 168.933594 C 113.917969 168.921875 114.488281 168.5 114.640625 168.242188 C 114.664062 168.203125 114.675781 168.167969 114.679688 168.140625 C 114.699219 167.910156 114.863281 167.1875 114.867188 167.167969 L 115.699219 166.640625 L 116.304688 166.589844 L 116.726562 166.132812 L 117.6875 165.285156 L 118.597656 164.714844 L 119.589844 164.246094 L 121.707031 163.074219 L 122.585938 162.160156 C 122.585938 162.160156 122.589844 162.15625 122.589844 162.15625 L 121.128906 162.050781 L 121.058594 161.257812 L 121.78125 161.652344 L 122.3125 161.148438 L 122.402344 159.953125 L 122.554688 159.023438 L 123.078125 157.984375 L 123.308594 156.167969 L 123.078125 155.230469 L 122.605469 154.621094 L 122.410156 153.679688 C 122.410156 153.679688 122.304688 152.886719 122.402344 152.648438 C 122.496094 152.414062 122.894531 151.691406 122.921875 151.574219 C 122.925781 151.558594 122.9375 151.53125 122.957031 151.496094 C 123.105469 151.246094 123.613281 150.554688 123.710938 150.515625 C 123.820312 150.46875 124.820312 149.617188 124.820312 149.617188 C 124.820312 149.617188 124.398438 149.15625 124.210938 149.171875 C 124.019531 149.1875 122.617188 149.800781 122.617188 149.800781 L 121.917969 150.128906 C 121.917969 150.128906 121.664062 150.265625 121.265625 150.070312 C 120.867188 149.875 120.277344 149.234375 120.277344 149.234375 L 120.179688 148.554688 L 120.5 148.261719 L 118.601562 148.421875 C 118.601562 148.421875 116.996094 148.902344 116.738281 148.578125 C 116.480469 148.257812 116.152344 147.519531 116.152344 147.519531 C 116.152344 147.519531 115.109375 147.378906 114.78125 147.558594 C 114.449219 147.738281 113.019531 148.890625 113.019531 148.890625 L 112.707031 148.839844 L 111.183594 149.351562 L 109.960938 149.378906 L 108.40625 149.511719 L 108.117188 149.613281 C 114.125 145.726562 121.144531 143.210938 128.757812 142.570312 C 140.746094 141.558594 152.050781 145.359375 160.761719 152.355469 C 160.605469 152.5 160.464844 152.597656 160.265625 152.730469 C 160.046875 152.878906 159.761719 152.925781 159.761719 152.925781 C 159.761719 152.925781 158.835938 153.019531 158.699219 153.066406 C 158.566406 153.117188 158.355469 153.183594 158.355469 153.183594 C 158.355469 153.183594 157.9375 153.375 157.785156 153.527344 C 157.632812 153.679688 157.332031 153.953125 157.324219 153.960938 C 157.324219 153.960938 157.292969 154.386719 157.125 154.65625 C 156.957031 154.925781 156.808594 155.058594 156.808594 155.058594 C 156.808594 155.058594 156.59375 155.292969 156.40625 155.488281 C 156.242188 155.65625 155.929688 155.785156 155.808594 155.972656 C 155.789062 155.996094 155.777344 156.027344 155.769531 156.054688 C 155.699219 156.292969 155.671875 156.421875 155.558594 156.75 C 155.445312 157.078125 155.359375 157.261719 155.34375 157.390625 C 155.332031 157.519531 155.296875 157.726562 155.296875 157.726562 C 155.296875 157.726562 155.253906 157.960938 155.304688 158.109375 C 155.355469 158.257812 155.429688 158.570312 155.597656 158.734375 C 155.765625 158.898438 156.394531 158.972656 156.394531 158.972656 L 156.652344 158.988281 C 156.652344 158.988281 157.035156 158.996094 157.175781 159.023438 C 157.320312 159.046875 157.625 159.046875 157.625 159.046875 C 157.625 159.046875 157.625 159.046875 157.621094 159.046875 C 157.625 159.046875 157.628906 159.046875 157.628906 159.046875 C 157.628906 159.046875 157.027344 158.574219 156.984375 158.539062 C 156.945312 158.503906 156.816406 158.195312 156.816406 158.195312 L 156.65625 157.648438 L 156.628906 157.320312 L 156.648438 156.960938 L 156.941406 156.503906 L 157.429688 155.800781 C 157.429688 155.800781 157.808594 155.324219 157.945312 155.132812 C 158.082031 154.941406 158.386719 154.636719 158.386719 154.636719 L 159.105469 154.078125 C 159.105469 154.078125 159.34375 153.867188 159.601562 153.757812 C 159.859375 153.644531 160.226562 153.449219 160.5 153.363281 C 160.769531 153.277344 161.132812 153.179688 161.375 153.046875 C 161.417969 153.023438 161.464844 152.996094 161.507812 152.972656 C 162.824219 154.074219 164.078125 155.253906 165.261719 156.5 L 165.175781 156.535156 L 165.175781 156.539062 L 164.988281 157.050781 L 164.988281 157.507812 L 165.128906 158.261719 L 165.300781 158.476562 L 166.148438 159.476562 C 166.113281 159.472656 165.605469 159.445312 165.429688 159.535156 C 165.417969 159.542969 165.40625 159.550781 165.398438 159.5625 C 165.277344 159.714844 165.496094 160.335938 165.496094 160.335938 L 165.234375 161.3125 L 164.746094 161.390625 L 164.484375 158.277344 L 164.195312 157.117188 L 164.324219 156.417969 C 164.324219 156.417969 163.625 155.671875 163.523438 155.65625 C 163.417969 155.640625 162.832031 155.941406 162.832031 155.941406 L 162.832031 155.945312 L 162.558594 156.9375 C 162.558594 156.9375 162.160156 157.964844 162.191406 158.359375 L 162.265625 159.230469 C 162.265625 159.230469 162.679688 159.910156 162.761719 159.980469 C 162.777344 159.992188 162.773438 160.019531 162.757812 160.050781 C 162.683594 160.191406 162.371094 160.46875 162.371094 160.46875 L 160.835938 159.78125 L 159.847656 159.546875 L 159.324219 159.246094 L 158.375 159.234375 L 158.378906 159.234375 L 158.375 159.234375 C 158.375 159.234375 159.097656 159.726562 159.097656 159.726562 L 159.160156 160.484375 L 158.664062 160.488281 L 157.976562 160.507812 L 157.394531 160.824219 L 156.578125 161.160156 L 156.253906 160.460938 L 155.203125 161.160156 L 154.425781 161.914062 L 154.070312 162.210938 L 153.015625 162.875 L 152.515625 162.382812 L 152.902344 161.546875 C 152.902344 161.546875 152.332031 161.136719 152.21875 161.144531 C 152.105469 161.15625 151.933594 161.398438 151.933594 161.398438 C 151.933594 161.398438 151.933594 161.402344 151.933594 161.402344 L 152.019531 162.425781 L 151.820312 163.246094 L 151.117188 163.34375 L 150.566406 163.769531 C 150.566406 163.769531 150.566406 163.773438 150.566406 163.773438 L 150.632812 164.570312 L 149.046875 164.320312 L 149.046875 164.324219 C 149.046875 164.324219 149.042969 164.324219 149.042969 164.324219 L 149.40625 164.980469 L 149.261719 165.527344 L 148.917969 165.519531 L 148.148438 164.550781 L 147.894531 164.265625 L 147.761719 163.628906 C 147.78125 163.628906 148.644531 163.667969 148.757812 163.660156 L 149.328125 163.609375 C 149.328125 163.609375 149.96875 163.519531 150.117188 163.46875 C 150.265625 163.417969 150.929688 163.09375 151.035156 163.007812 C 151.042969 163 151.050781 162.996094 151.054688 162.984375 C 151.125 162.835938 150.96875 162.207031 150.96875 162.207031 L 149.382812 161.5 L 148.207031 161.179688 L 147.734375 160.988281 L 146.933594 160.597656 L 146.382812 160.414062 L 145.777344 160.042969 C 145.777344 160.042969 145.242188 160.011719 145.128906 160.023438 L 144.746094 160.054688 L 143.855469 159.902344 C 143.855469 159.902344 142.246094 160.339844 142.097656 160.394531 C 141.949219 160.445312 141.0625 160.824219 141.0625 160.824219 L 140.328125 161.152344 L 139.648438 161.746094 L 138.945312 162.914062 L 138.625 163.210938 L 137.914062 165.679688 L 136.816406 166.6875 L 136.160156 167.050781 L 135.496094 167.375 L 135.230469 168.773438 L 135.402344 169.449219 L 135.777344 170.71875 L 136.101562 170.917969 C 136.101562 170.917969 136.710938 170.445312 136.886719 170.261719 C 137.0625 170.074219 137.757812 170.1875 137.757812 170.1875 L 138.351562 170.882812 C 138.351562 170.882812 138.789062 171.496094 138.867188 171.527344 C 138.945312 171.558594 138.925781 172.1875 138.921875 172.207031 L 138.394531 172.253906 L 138.121094 172.199219 L 137.730469 171.199219 L 137.140625 171.441406 L 136.714844 171.859375 C 136.714844 171.859375 136.714844 171.863281 136.714844 171.863281 L 137.078125 173.015625 L 137.019531 173.671875 L 136.371094 174.144531 L 135.195312 175.164062 L 134.472656 175.183594 L 133.820312 175.164062 L 133.613281 174.070312 L 132.203125 173.195312 L 131.636719 171.714844 L 131.820312 171.414062 L 131.34375 170.726562 L 130.777344 171.042969 C 130.777344 171.042969 130.347656 171.171875 130.292969 171.179688 C 130.289062 171.179688 130.285156 171.183594 130.28125 171.191406 C 130.230469 171.277344 130.207031 171.996094 130.230469 172.066406 C 130.257812 172.136719 130.492188 172.925781 130.496094 172.9375 L 130.207031 173.117188 L 129.429688 173.871094 L 129.03125 174.34375 C 129.03125 174.34375 129.027344 174.34375 129.027344 174.34375 L 129.207031 174.882812 L 129.015625 175.800781 L 129.839844 175.789062 L 130.292969 175.539062 L 130.660156 175.335938 L 130.660156 175.332031 L 130.625 174.6875 L 130.582031 174.136719 L 131.035156 174.097656 L 131.007812 173.738281 L 131.613281 173.6875 L 131.785156 173.921875 L 131.878906 174.601562 L 131.464844 174.636719 L 131.460938 174.636719 L 131.292969 175.359375 L 131.546875 175.644531 L 132.074219 175.789062 L 131.222656 176.335938 C 131.222656 176.335938 131.222656 176.339844 131.222656 176.339844 L 131.253906 176.71875 L 131.828125 176.480469 L 132.277344 176.382812 L 133.140625 176.160156 L 133.988281 175.8125 L 134.199219 176.480469 L 133.53125 176.996094 L 133.246094 176.945312 L 132.730469 176.886719 L 132.730469 177.496094 L 131.734375 177.453125 L 131.734375 177.457031 C 131.734375 177.457031 131.730469 177.457031 131.730469 177.457031 L 131.6875 177.867188 L 132.683594 178.191406 L 133.410156 178.945312 L 133.339844 179.667969 L 133.289062 180.210938 L 133.164062 180.515625 L 133.089844 180.550781 L 132.648438 180.636719 L 132.265625 180.667969 L 131.660156 180.738281 L 130.84375 180.664062 L 130.394531 180.652344 L 129.972656 180.878906 L 129.808594 181.09375 C 129.808594 181.09375 129.804688 181.097656 129.804688 181.097656 C 129.804688 181.097656 129.964844 181.398438 129.996094 181.40625 C 130.023438 181.414062 130.035156 181.773438 130.035156 181.773438 L 130.125 182.265625 L 130.132812 182.675781 L 129.894531 183.144531 L 130.148438 183.332031 L 130.210938 183.730469 L 130.125 184.042969 L 130.492188 184.117188 L 130.84375 183.972656 L 131.007812 183.988281 L 131.382812 184.234375 L 131.542969 184.574219 L 131.605469 184.695312 L 131.335938 184.703125 L 130.863281 185.429688 L 130.082031 186.148438 L 129.910156 186.851562 L 129.964844 187.496094 L 129.105469 188.179688 L 128.472656 188.816406 L 127.800781 189.476562 C 127.800781 189.476562 127.796875 189.476562 127.796875 189.476562 L 127.457031 190.425781 L 126.859375 191.507812 L 127.246094 192.429688 L 127.617188 193.203125 L 127.433594 193.753906 L 127.40625 194.367188 L 127.566406 194.890625 L 127.472656 195.585938 L 127.96875 196.039062 L 128.675781 196.707031 L 129.125 197.050781 C 129.125 197.050781 129.511719 197.554688 129.523438 197.707031 C 129.535156 197.859375 130.050781 198.082031 130.171875 198.148438 C 130.292969 198.214844 131.347656 198.929688 131.347656 198.929688 L 131.894531 199.035156 L 132.273438 199.003906 L 132.960938 198.679688 L 135.535156 198.691406 L 136.542969 198.375 L 138.140625 198.738281 L 139.546875 199.078125 L 139.589844 201.113281 L 140.996094 202.667969 L 141.800781 204.050781 L 141.921875 205.496094 L 141.546875 206.597656 C 141.546875 206.597656 141.445312 208.019531 141.425781 208.214844 C 141.402344 208.40625 142.035156 209.539062 142.035156 209.539062 L 142.902344 211.226562 C 142.902344 211.226562 143.15625 211.96875 143.25 212.152344 C 143.339844 212.335938 144.074219 213.308594 144.074219 213.308594 L 144.679688 214.171875 L 144.871094 215.074219 C 144.871094 215.074219 145.3125 215.765625 145.539062 215.746094 C 145.769531 215.726562 147.800781 215.324219 147.800781 215.324219 L 149.449219 214.460938 L 150.3125 213.355469 C 150.3125 213.355469 150.308594 213.351562 150.308594 213.351562 L 151.175781 211.367188 L 151.304688 210.632812 L 151.855469 210.394531 C 151.855469 210.394531 151.859375 210.394531 151.859375 210.394531 L 152.109375 209.300781 L 151.800781 208.332031 L 152.546875 207.660156 L 153.753906 206.566406 L 154.175781 206.144531 C 154.175781 206.144531 154.179688 206.144531 154.179688 206.144531 L 153.964844 203.601562 L 153.429688 202.726562 L 153.304688 201.707031 L 153.699219 200.488281 L 154.789062 199.324219 L 156.027344 197.691406 L 157.027344 196.878906 C 157.027344 196.878906 157.03125 196.878906 157.03125 196.878906 L 157.503906 195.691406 L 157.777344 193.949219 L 157.742188 193.53125 L 155.804688 194.152344 L 154.894531 194.230469 L 154.042969 193.652344 C 154.042969 193.652344 153.632812 192.882812 153.515625 192.855469 C 153.398438 192.824219 153.035156 192.589844 153.035156 192.589844 L 151.796875 190.589844 L 151.046875 189.429688 L 149.890625 187.960938 L 149.386719 186.511719 L 149.917969 186.46875 L 150.488281 187.335938 L 151.398438 188.140625 L 152.003906 189.425781 L 152.945312 190.1875 C 152.945312 190.1875 153.660156 190.933594 153.847656 191.335938 C 154.035156 191.742188 154.085938 191.890625 154.183594 192.148438 C 154.28125 192.410156 154.546875 193.304688 154.546875 193.304688 L 154.9375 193.386719 L 156.191406 192.820312 L 156.839844 192.347656 L 157.410156 191.875 C 157.410156 191.875 158.476562 191.367188 158.699219 191.269531 C 158.917969 191.175781 159.652344 190.808594 159.71875 190.6875 C 159.785156 190.566406 160.371094 189.792969 160.371094 189.792969 L 160.707031 189.226562 L 161.074219 188.582031 L 160.65625 187.699219 L 159.980469 187.414062 L 159.425781 187.191406 L 158.226562 187.90625 L 157.371094 187.75 L 156.117188 186.488281 L 155.816406 185.625 L 155.871094 185.371094 C 155.871094 185.371094 156.433594 185.265625 156.433594 185.265625 L 156.980469 185.621094 L 157.738281 186.226562 L 158.304688 186.582031 L 159.210938 186.226562 L 159.773438 186.78125 L 160.667969 187.164062 L 162.144531 186.773438 L 163.085938 186.578125 L 164.625 187.597656 L 165.074219 188.398438 L 166.363281 188.710938 L 166.902344 188.285156 L 167.125 189.105469 L 167.53125 190.335938 L 167.9375 191.066406 L 168.203125 191.921875 L 169.65625 194.207031 C 169.65625 194.207031 169.855469 193.925781 170.011719 193.703125 C 170.058594 193.628906 170.101562 193.566406 170.132812 193.519531 C 170.265625 193.320312 170.613281 193.070312 170.628906 193.058594 L 170.417969 192.417969 L 170.371094 192.277344 L 170.671875 191.542969 C 170.671875 191.542969 170.671875 191.546875 170.667969 191.546875 L 171.289062 190.019531 C 171.289062 190.019531 172.238281 189.480469 172.238281 189.480469 L 172.664062 189.0625 L 173.300781 187.976562 L 174.175781 187.480469 C 174.175781 187.480469 175.253906 188.039062 175.367188 188.027344 C 175.484375 188.019531 175.972656 188.359375 175.972656 188.359375 L 176.300781 188.640625 L 176.589844 189.339844 L 176.890625 190.195312 L 177.070312 190.066406 L 177.582031 189.683594 C 176.519531 211.902344 159.097656 230.5 136.339844 232.421875 Z M 136.332031 232.425781 " fill-opacity="1" fill-rule="nonzero"/></g></g></g></g><g clip-path="url(#23bc1c0fda)"><g clip-path="url(#3e27e466e0)"><g clip-path="url(#49b3770a64)"><g clip-path="url(#3f8613f9d7)"><path fill="#ffffff" d="M 157.78125 204.046875 L 157.78125 204.050781 C 157.78125 204.050781 157.289062 205.007812 157.289062 205.007812 L 157.066406 205.3125 C 157.066406 205.3125 156.855469 205.542969 156.582031 205.679688 C 156.304688 205.816406 156.035156 206.03125 156.035156 206.03125 C 156.035156 206.03125 155.902344 206.117188 155.792969 206.304688 C 155.753906 206.363281 155.71875 206.4375 155.691406 206.519531 C 155.585938 206.855469 155.664062 207.519531 155.664062 207.519531 L 155.84375 207.847656 L 155.558594 208.769531 L 155.589844 209.148438 L 155.828125 209.796875 L 156.039062 210.164062 L 157.445312 209.835938 L 157.445312 209.832031 L 157.441406 208.875 L 157.691406 208.207031 C 157.691406 208.207031 157.808594 207.792969 157.820312 207.679688 C 157.828125 207.5625 157.941406 207.304688 157.972656 206.976562 C 158 206.648438 158.113281 205.953125 158.113281 205.953125 L 158.226562 205.464844 C 158.226562 205.464844 158.300781 205.210938 158.285156 205.058594 C 158.273438 204.90625 158.117188 204.402344 158.117188 204.402344 Z M 157.78125 204.046875 " fill-opacity="1" fill-rule="nonzero"/></g></g></g></g><g clip-path="url(#f68a10997c)"><g clip-path="url(#2cb97831d5)"><g clip-path="url(#08e3bbeaf8)"><g clip-path="url(#d6e7f3e24a)"><path fill="#ffffff" d="M 170.410156 192.417969 C 170.496094 192.128906 170.578125 191.839844 170.660156 191.550781 L 170.363281 192.277344 Z M 170.410156 192.417969 " fill-opacity="1" fill-rule="nonzero"/></g></g></g></g><g clip-path="url(#42a67dc8ba)"><g clip-path="url(#ca74cec55d)"><g clip-path="url(#86e8f62c9e)"><g clip-path="url(#e25aac69fc)"><path fill="#ffffff" d="M 154.191406 160.910156 C 154.375 160.804688 154.722656 160.570312 154.722656 160.570312 C 154.722656 160.570312 154.726562 160.570312 154.726562 160.570312 C 154.726562 160.570312 154.558594 160.277344 154.480469 160.257812 C 154.402344 160.238281 154.15625 160.195312 154.15625 160.195312 L 153.816406 160.214844 L 153.8125 160.214844 L 153.617188 160.601562 L 153.820312 161.070312 C 153.820312 161.070312 154.007812 161.015625 154.191406 160.910156 Z M 154.191406 160.910156 " fill-opacity="1" fill-rule="nonzero"/></g></g></g></g><g clip-path="url(#7a89bcb2a4)"><g clip-path="url(#75f8a7ca3e)"><g clip-path="url(#3dc7b5a661)"><g clip-path="url(#dc1618d4bf)"><path fill="#ffffff" d="M 126.078125 167.023438 L 127.03125 166.648438 L 127.546875 166.230469 L 127.152344 165.730469 L 126.433594 165.164062 L 125.9375 165.105469 L 125.019531 165.636719 L 124.324219 165.773438 L 123.605469 165.421875 L 123.242188 165.296875 L 122.589844 165.722656 C 122.589844 165.722656 122.585938 165.726562 122.585938 165.726562 L 123.191406 166.144531 L 123.585938 167.097656 L 123.777344 167.472656 C 123.777344 167.472656 124.148438 167.699219 124.269531 167.707031 C 124.386719 167.714844 124.738281 167.6875 124.738281 167.6875 C 124.738281 167.6875 125.527344 167.503906 125.617188 167.394531 C 125.707031 167.289062 126.078125 167.023438 126.078125 167.023438 Z M 126.078125 167.023438 " fill-opacity="1" fill-rule="nonzero"/></g></g></g></g><g clip-path="url(#eef19320db)"><g clip-path="url(#39cc8bd3ac)"><path fill="#ffffff" d="M 193.222656 191.070312 L 193.222656 182.636719 L 315.855469 182.636719 L 315.855469 191.070312 Z M 193.222656 191.070312 " fill-opacity="1" fill-rule="nonzero"/></g></g><g clip-path="url(#56124edb4f)"><g clip-path="url(#289e10a1eb)"><g clip-path="url(#724737c3dd)"><path fill="#906cd5" d="M 93.421875 222.320312 C 93.816406 223.335938 99.003906 222.164062 99.628906 222.023438 C 102.839844 221.300781 105.382812 220.175781 107.152344 219.242188 C 108.320312 220.257812 109.488281 221.273438 110.652344 222.289062 C 110.296875 222.445312 109.9375 222.601562 109.582031 222.757812 C 109.695312 223.023438 109.894531 223.394531 110.238281 223.769531 C 110.644531 224.210938 111.074219 224.460938 111.351562 224.597656 C 111.683594 224.421875 112.011719 224.25 112.34375 224.078125 C 114.414062 225.785156 116.480469 227.496094 118.550781 229.207031 C 118.5625 229.210938 118.574219 229.214844 118.585938 229.21875 C 120.074219 229.09375 121.519531 228.691406 122.980469 228.390625 C 120.476562 225.890625 117.972656 223.386719 115.464844 220.886719 L 116.101562 220.527344 C 115.976562 220.390625 115.847656 220.253906 115.722656 220.121094 C 115.441406 220.179688 115.15625 220.238281 114.875 220.296875 C 113.976562 219.402344 113.082031 218.507812 112.1875 217.613281 L 126.007812 210.757812 C 127.128906 211.660156 128.25 212.5625 129.371094 213.464844 C 130.457031 213.339844 131.542969 213.21875 132.628906 213.097656 L 128.582031 208.925781 C 128.980469 208.652344 129.382812 208.378906 129.78125 208.105469 C 129.734375 207.988281 129.6875 207.871094 129.640625 207.75 C 129.179688 207.796875 128.722656 207.84375 128.261719 207.890625 C 128.476562 206.089844 128.691406 204.289062 128.90625 202.488281 C 127.980469 203.03125 127.054688 203.578125 126.128906 204.125 C 125.792969 205.589844 125.457031 207.058594 125.121094 208.523438 L 110.390625 212.957031 L 110.59375 209.558594 L 111.21875 209.195312 L 111.214844 208.851562 C 111.082031 208.804688 110.949219 208.757812 110.820312 208.710938 C 111.207031 204.832031 111.597656 200.949219 111.988281 197.066406 C 111.496094 197.320312 111.097656 197.542969 110.832031 197.703125 C 109.96875 198.226562 109.121094 198.792969 108.230469 199.273438 C 108.105469 199.339844 107.976562 199.402344 107.847656 199.46875 C 107.285156 202.355469 106.722656 205.246094 106.160156 208.132812 C 105.796875 208.234375 105.4375 208.335938 105.078125 208.4375 C 104.949219 208.714844 104.78125 209.167969 104.75 209.75 C 104.726562 210.214844 104.796875 210.605469 104.867188 210.867188 C 105.25 210.832031 105.628906 210.792969 106.011719 210.757812 C 105.8125 212.222656 105.613281 213.6875 105.414062 215.15625 C 103.289062 215.800781 100.421875 216.890625 97.355469 218.824219 C 96.066406 219.632812 93.101562 221.5 93.421875 222.320312 Z M 93.421875 222.320312 " fill-opacity="1" fill-rule="nonzero"/></g></g></g><g clip-path="url(#c493f6938e)"><g clip-path="url(#d985fb37ed)"><g clip-path="url(#0d7bb290e9)"><path fill="#906cd5" d="M 171.109375 182.59375 C 174.5 178.113281 177.910156 172.132812 178.035156 166.394531 C 178.140625 163.8125 177.589844 161.007812 175.789062 159.050781 C 174.066406 157.125 171.457031 156.234375 168.929688 156.175781 C 172.109375 156.75 175.097656 158.46875 176.128906 161.679688 C 176.625 163.164062 176.652344 164.753906 176.496094 166.300781 C 175.957031 172.238281 171.574219 178.625 167.769531 183.074219 C 163.808594 187.691406 159.210938 191.75 154.273438 195.308594 C 149.796875 198.527344 145.03125 201.3125 140.046875 203.691406 C 137.265625 205.019531 134.40625 206.210938 131.523438 207.308594 C 146.6875 204.019531 161.632812 194.941406 171.109375 182.59375 Z M 171.109375 182.59375 " fill-opacity="1" fill-rule="nonzero"/></g></g></g><path fill="#ffffff" d="M 75.089844 179.382812 C 75.328125 179.1875 75.316406 181.554688 75.21875 184.007812 C 75.113281 185.238281 75.230469 186.488281 75.257812 187.464844 C 75.289062 188.441406 75.304688 189.125 75.304688 189.21875 C 75.113281 190.460938 75.738281 193.828125 75.945312 195.742188 C 76.066406 196.703125 76.265625 197.269531 76.140625 197.050781 C 76.007812 196.726562 75.902344 196.394531 75.824219 196.058594 C 75.710938 195.480469 75.546875 194.628906 75.320312 193.464844 C 75.046875 192.023438 74.648438 190.53125 74.683594 189.273438 C 74.683594 189.097656 74.613281 188.4375 74.53125 187.523438 C 74.472656 186.613281 74.273438 185.453125 74.371094 184.292969 C 74.476562 181.96875 74.566406 179.644531 75.089844 179.382812 Z M 75.089844 179.382812 " fill-opacity="1" fill-rule="evenodd"/><path fill="#ffffff" d="M 107.261719 233.335938 C 107.082031 232.519531 113.007812 235.269531 108.9375 234.039062 C 108.695312 233.964844 107.320312 233.601562 107.261719 233.335938 Z M 107.261719 233.335938 " fill-opacity="1" fill-rule="evenodd"/><g clip-path="url(#68378ad11f)"><path fill="#ffffff" d="M 72.558594 202.75 C 73.023438 204.46875 73.722656 206.15625 74.382812 207.871094 C 74.683594 208.734375 75.128906 209.558594 75.570312 210.378906 L 76.875 212.867188 L 77.519531 214.128906 C 77.75 214.539062 78.019531 214.929688 78.265625 215.335938 C 78.761719 216.144531 79.25 216.964844 79.726562 217.796875 C 80.601562 219.515625 81.742188 221.066406 82.660156 222.828125 C 83.898438 225.09375 81.996094 224.402344 82.589844 225.660156 C 83.625 227.460938 84.953125 229.378906 86.65625 231.074219 C 87.53125 231.898438 88.453125 232.707031 89.410156 233.507812 C 89.890625 233.898438 90.355469 234.320312 90.871094 234.679688 L 92.445312 235.71875 L 95.613281 237.734375 C 96.703125 238.335938 97.808594 238.875 98.867188 239.445312 C 100.945312 240.644531 103.066406 241.507812 104.898438 242.527344 C 105.496094 242.824219 106.132812 243.605469 106.917969 244.246094 C 107.683594 244.921875 108.519531 245.644531 109.34375 246.089844 C 111.859375 247.574219 114.683594 248.183594 117.507812 248.945312 C 118.945312 249.21875 120.410156 249.402344 121.894531 249.640625 L 124.140625 249.988281 L 126.445312 250.199219 L 128.863281 250.429688 C 129.710938 250.527344 130.5625 250.5625 131.414062 250.535156 C 133.160156 250.503906 134.980469 250.453125 136.863281 250.367188 L 142.636719 249.554688 C 144.597656 249.210938 146.5625 248.625 148.582031 248.140625 C 156.574219 245.867188 164.582031 241.84375 171.484375 236.839844 C 173.136719 235.746094 173.847656 235.148438 174.046875 235.101562 C 174.246094 235.054688 173.902344 235.519531 173.183594 236.253906 C 172.429688 236.9375 171.308594 237.890625 170.058594 238.914062 C 169.429688 239.417969 168.785156 239.972656 168.101562 240.460938 L 166.007812 241.804688 C 156.042969 248.15625 145.554688 251.199219 135.324219 251.5 C 130.1875 251.667969 125.113281 251.195312 120.097656 250.078125 C 115.082031 248.964844 110.28125 247.238281 105.703125 244.910156 C 105.605469 244.859375 103.441406 243.785156 101.316406 242.796875 C 100.230469 242.34375 99.25 241.730469 98.492188 241.367188 C 97.734375 241.003906 97.238281 240.804688 97.242188 240.972656 C 97.242188 241.179688 97.964844 241.78125 99.085938 242.59375 C 99.722656 243.066406 100.390625 243.484375 101.09375 243.84375 L 103.542969 245.171875 C 105.222656 246.148438 107.117188 246.859375 108.746094 247.527344 L 110.957031 248.421875 C 111.605469 248.6875 112.175781 248.816406 112.570312 248.960938 C 120.578125 251.832031 130.304688 252.992188 139.628906 251.851562 C 148.96875 250.777344 157.722656 247.484375 164.449219 243.601562 C 170.761719 240.105469 175.957031 235.640625 180.421875 230.992188 C 184.957031 226.359375 188.328125 221.117188 191.136719 215.839844 L 193.011719 211.785156 C 193.324219 211.117188 193.59375 210.433594 193.8125 209.726562 L 194.523438 207.644531 C 195.554688 204.90625 196.109375 202.042969 196.683594 199.21875 L 196.894531 198.164062 L 197.007812 197.085938 L 197.21875 194.9375 L 197.402344 192.792969 C 197.484375 192.082031 197.507812 191.363281 197.480469 190.648438 C 197.40625 187.765625 197.40625 184.910156 196.839844 182.066406 C 196.730469 181.394531 196.558594 180.628906 196.339844 179.800781 L 195.976562 178.53125 C 195.816406 178.101562 195.625 177.667969 195.4375 177.21875 C 194.652344 175.453125 193.777344 173.617188 192.785156 172.023438 C 192.21875 171.207031 191.386719 169.441406 190.234375 168.289062 C 189.082031 167.132812 187.628906 166.628906 185.757812 168.085938 C 185.378906 168.375 185.558594 169.304688 186.074219 170.613281 C 186.589844 171.921875 187.507812 173.621094 188.199219 175.558594 C 188.589844 176.527344 189 177.527344 189.402344 178.523438 C 189.800781 179.519531 190.039062 180.558594 190.347656 181.550781 C 190.90625 183.515625 191.398438 185.332031 191.398438 186.601562 C 191.480469 188.722656 191.710938 190.890625 191.488281 192.996094 C 191.34375 195.105469 191.261719 197.210938 190.820312 199.164062 C 190.214844 203.140625 188.996094 206.640625 187.898438 209.355469 C 186.734375 211.71875 185.734375 214.148438 184.324219 216.351562 C 183.648438 217.464844 183.039062 218.617188 182.316406 219.699219 L 180.058594 222.867188 C 179.675781 223.386719 179.324219 223.929688 178.917969 224.433594 L 177.660156 225.898438 L 175.144531 228.820312 L 172.386719 231.480469 C 171.46875 232.367188 170.5625 233.261719 169.535156 234.015625 C 161.707031 240.476562 152.433594 244.875 142.988281 246.664062 C 133.933594 248.367188 124.453125 247.558594 115.542969 244.609375 C 114.4375 244.21875 113.296875 243.925781 112.214844 243.441406 L 108.960938 242.003906 L 107.335938 241.269531 L 105.769531 240.386719 C 104.734375 239.796875 103.6875 239.207031 102.636719 238.609375 C 98.601562 235.957031 94.636719 233.039062 91.175781 229.390625 C 90.4375 228.617188 89.644531 227.886719 88.925781 227.078125 L 86.835938 224.550781 C 85.351562 222.925781 84.199219 221 82.890625 219.175781 C 82.207031 218.28125 81.699219 217.261719 81.132812 216.277344 C 80.566406 215.289062 80.011719 214.296875 79.445312 213.300781 C 78.976562 212.253906 78.503906 211.199219 78.03125 210.144531 C 77.574219 209.078125 77.023438 208.058594 76.695312 206.925781 C 73.511719 198.171875 72.0625 188.398438 73.273438 178.746094 C 73.945312 172.429688 76.132812 165.539062 79.503906 159.144531 C 82.859375 152.71875 87.386719 146.824219 92.289062 141.832031 C 93.074219 140.875 94.167969 140.136719 95.167969 139.28125 C 96.210938 138.480469 97.1875 137.570312 98.253906 136.929688 C 100.34375 135.566406 102.054688 134.136719 103 133.113281 C 103.207031 132.855469 102.675781 133.042969 101.710938 133.472656 C 100.789062 133.984375 99.476562 134.808594 98.050781 135.679688 C 96.582031 136.488281 95.214844 137.652344 93.941406 138.519531 C 92.671875 139.390625 91.59375 140.105469 91.015625 140.453125 L 88.050781 143.191406 C 87.054688 144.113281 86.21875 145.207031 85.285156 146.214844 L 83.914062 147.769531 C 83.472656 148.296875 83.09375 148.882812 82.675781 149.441406 C 81.867188 150.574219 81.015625 151.691406 80.238281 152.863281 C 77.222656 157.625 74.832031 162.882812 73.082031 168.394531 C 71.460938 173.957031 70.625 179.753906 70.449219 185.570312 C 70.453125 191.382812 71.15625 197.109375 72.558594 202.75 Z M 80.9375 152.925781 C 81.332031 152.867188 81.039062 154.921875 80.527344 154.996094 C 80.117188 155.070312 80.417969 153 80.9375 152.925781 Z M 79.519531 155.5625 C 79.519531 155.5625 79.328125 157.964844 78.894531 158.039062 C 78.84375 158.0625 77.945312 155.851562 79.519531 155.5625 Z M 77.734375 159.132812 C 78.117188 159.039062 78.117188 160.660156 77.734375 160.757812 C 77.351562 160.855469 77.339844 159.234375 77.726562 159.132812 Z M 76.371094 162.335938 C 76.757812 162.226562 76.765625 163.804688 76.433594 163.945312 C 76.246094 164.007812 76.117188 163.632812 76.082031 163.226562 C 76.070312 162.828125 76.175781 162.398438 76.371094 162.335938 Z M 72.304688 176.148438 C 73.179688 175.617188 71.871094 182.089844 72.136719 177.632812 C 72.148438 177.4375 72.132812 176.25 72.304688 176.148438 Z M 71.394531 187.574219 C 71.671875 187.320312 72.257812 188.375 72.105469 188.519531 C 71.828125 188.777344 71.234375 187.722656 71.394531 187.574219 Z M 77.988281 213.078125 C 81.722656 219.4375 85.792969 224.917969 89.980469 230.019531 C 90.867188 230.773438 91.429688 231.171875 92.355469 231.960938 C 94.949219 233.855469 94.742188 234.121094 93.628906 233.59375 C 92.476562 233.117188 90.636719 231.535156 89.980469 230.019531 C 84.585938 225.191406 80.003906 219.1875 77.988281 213.078125 C 75.554688 210.121094 78.910156 210.746094 77.988281 213.078125 Z M 94.613281 235.011719 C 94.65625 235.417969 95.695312 235.671875 96.710938 235.945312 C 97.757812 236.179688 98.828125 236.359375 98.921875 236.898438 C 98.214844 236.90625 97.515625 236.847656 96.824219 236.722656 C 95.773438 236.480469 94.710938 235.917969 94.613281 235.011719 Z M 99.222656 238.484375 C 99.128906 237.945312 100.976562 238.941406 102.207031 239.589844 C 103.46875 240.179688 103.996094 240.714844 101.066406 239.480469 C 100.792969 239.347656 99.28125 238.785156 99.222656 238.484375 Z M 104.167969 241.539062 C 104.050781 241.136719 106.183594 241.261719 106.339844 241.777344 C 106.476562 242.195312 104.328125 242.0625 104.164062 241.539062 Z M 108.390625 243.820312 C 108 242.851562 114.53125 245.503906 109.910156 244.304688 C 109.710938 244.25 108.472656 244.011719 108.390625 243.820312 Z M 113.855469 246.039062 C 113.359375 245.101562 122.3125 247.578125 115.945312 246.488281 C 115.640625 246.4375 113.992188 246.316406 113.851562 246.039062 Z M 121.148438 247.9375 C 120.855469 247.480469 123 247.695312 124.421875 247.882812 C 125.140625 247.933594 125.667969 248.015625 125.617188 248.089844 C 125.566406 248.128906 124.914062 248.316406 123.292969 248.183594 C 122.972656 248.160156 121.320312 248.191406 121.148438 247.9375 Z M 175.964844 232.609375 C 175.542969 232.582031 176.261719 230.96875 176.6875 230.988281 C 177.113281 231.011719 176.398438 232.632812 175.964844 232.609375 Z M 178.25 230.148438 C 177.863281 230.148438 178.261719 228.886719 178.484375 228.882812 C 178.878906 228.867188 178.480469 230.144531 178.25 230.148438 Z M 178.25 230.148438 " fill-opacity="1" fill-rule="evenodd"/></g><path fill="#ffffff" d="M 75.773438 198.203125 C 76.15625 197.757812 76.953125 201.695312 78.507812 205.695312 C 78.6875 206.199219 78.84375 206.71875 79.039062 207.214844 C 79.261719 207.703125 79.480469 208.1875 79.699219 208.65625 L 80.898438 211.3125 C 81.1875 212.003906 81.53125 212.667969 81.921875 213.308594 L 82.507812 214.339844 C 83.050781 215.300781 83.667969 216.210938 84.355469 217.074219 C 84.996094 217.785156 85.542969 218.371094 85.902344 218.886719 C 86.578125 219.855469 86.789062 220.660156 87.089844 221.378906 C 87.421875 222.066406 87.882812 222.640625 88.949219 223.15625 C 88.625 222.992188 87.941406 219.65625 90.511719 222.941406 C 90.621094 223.058594 90.96875 225.273438 91.761719 225.015625 C 90.40625 225.449219 89.015625 224.304688 87.730469 222.886719 C 87.410156 222.527344 87.097656 222.152344 86.800781 221.773438 L 86.054688 220.558594 C 85.585938 219.769531 85.167969 219.054688 84.808594 218.539062 C 84.445312 218.007812 84.039062 217.488281 83.703125 216.914062 L 82.730469 215.152344 C 82.113281 213.960938 81.386719 212.847656 80.890625 211.667969 C 80.398438 210.488281 79.921875 209.390625 79.496094 208.394531 C 79.289062 207.898438 79.0625 207.4375 78.898438 206.996094 L 78.492188 205.765625 C 78.277344 205.140625 77.347656 203.5625 76.539062 201.972656 C 75.898438 200.335938 75.394531 198.699219 75.773438 198.203125 Z M 75.773438 198.203125 " fill-opacity="1" fill-rule="evenodd"/><path fill="#ffffff" d="M 110.851562 235.417969 C 110.5625 234.457031 117.949219 237.371094 112.601562 235.960938 C 112.34375 235.894531 110.9375 235.6875 110.851562 235.417969 Z M 110.851562 235.417969 " fill-opacity="1" fill-rule="evenodd"/><path fill="#ffffff" d="M 115.070312 237.351562 C 115.398438 238.0625 118.851562 236.628906 119.253906 237.585938 C 118.667969 237.808594 118.0625 237.96875 117.441406 238.066406 C 116.480469 238.207031 115.398438 238.140625 115.070312 237.351562 Z M 115.070312 237.351562 " fill-opacity="1" fill-rule="evenodd"/><path fill="#ffffff" d="M 105.976562 236.1875 C 105.925781 235.96875 105.195312 235.46875 104.113281 234.8125 C 103.085938 234.054688 101.714844 233.128906 100.273438 232.21875 C 97.488281 230.226562 94.578125 228.03125 93.558594 227.289062 C 94.996094 228.179688 93.042969 226.992188 91.429688 226.15625 C 90.597656 225.761719 89.964844 225.347656 89.828125 225.433594 C 89.691406 225.523438 90.066406 226.117188 91.628906 227.335938 L 93.886719 229.175781 C 94.992188 229.511719 95.90625 229.765625 96.4375 230.121094 C 96.988281 230.449219 97.246094 230.78125 97.222656 230.96875 C 97.203125 231.160156 96.902344 231.203125 96.332031 230.96875 C 95.960938 230.804688 95.609375 230.605469 95.277344 230.375 C 94.761719 230.039062 94.296875 229.640625 93.886719 229.183594 C 94.023438 230.066406 94.476562 230.738281 95.246094 231.191406 C 95.855469 231.558594 96.542969 231.695312 97.164062 231.792969 C 98.425781 231.96875 99.363281 232.042969 99.183594 233.484375 C 99.246094 232.949219 97.886719 233.382812 98.011719 233.511719 C 99.488281 234.988281 100.410156 234.429688 102.332031 235.890625 C 102.332031 235.234375 103.238281 235.722656 104.207031 236.046875 C 105.171875 236.371094 106.113281 236.742188 105.976562 236.1875 Z M 99.613281 233.722656 C 99.46875 232.726562 104.878906 236.273438 100.910156 234.414062 C 100.734375 234.335938 99.640625 233.914062 99.613281 233.722656 Z M 99.613281 233.722656 " fill-opacity="1" fill-rule="evenodd"/><g clip-path="url(#8aa75c6b9d)"><path fill="#ffffff" d="M 105.265625 129.765625 C 105.265625 129.765625 103.683594 131.710938 103.289062 131.53125 C 103.234375 131.523438 103.804688 129.136719 105.265625 129.765625 Z M 105.265625 129.765625 " fill-opacity="1" fill-rule="evenodd"/></g><path fill="#ffffff" d="M 101.175781 131.953125 C 101.359375 132.023438 101.265625 132.296875 101.101562 132.546875 C 100.949219 132.816406 100.730469 133.0625 100.628906 133.027344 C 100.273438 132.914062 100.945312 131.839844 101.175781 131.953125 Z M 101.175781 131.953125 " fill-opacity="1" fill-rule="evenodd"/><path fill="#ffffff" d="M 91.011719 140.445312 C 91.332031 139.582031 91.832031 138.839844 92.503906 138.214844 C 92.960938 137.808594 93.304688 137.691406 93.433594 137.792969 C 93.566406 137.894531 93.488281 138.214844 93.109375 138.664062 C 92.730469 139.117188 92.003906 139.65625 91.011719 140.445312 Z M 91.011719 140.445312 " fill-opacity="1" fill-rule="evenodd"/><path fill="#ffffff" d="M 180.464844 174.40625 C 179.484375 172.804688 178.953125 175.152344 179.101562 172.074219 C 179.128906 171.566406 180.078125 173.140625 180.742188 174.378906 C 180.96875 174.78125 181.132812 175.203125 181.222656 175.65625 C 181.195312 175.777344 181.074219 175.445312 180.464844 174.40625 Z M 180.464844 174.40625 " fill-opacity="1" fill-rule="evenodd"/><path fill="#ffffff" d="M 182.746094 179.378906 C 180.398438 177.351562 182.695312 175.035156 182.746094 179.378906 Z M 182.746094 179.378906 " fill-opacity="1" fill-rule="evenodd"/><path fill="#ffffff" d="M 181.035156 171.984375 C 178.15625 170.976562 183.074219 172.707031 181.035156 171.984375 Z M 181.035156 171.984375 " fill-opacity="1" fill-rule="evenodd"/><path fill="#ffffff" d="M 106.578125 238.484375 C 105.371094 237.535156 102.246094 237.574219 102.335938 235.890625 C 103.214844 236.851562 105.402344 237.136719 106.707031 237.464844 C 108.023438 237.761719 108.617188 237.996094 106.578125 238.484375 Z M 106.578125 238.484375 " fill-opacity="1" fill-rule="evenodd"/><path fill="#ffffff" d="M 182.746094 179.378906 C 183.886719 180.433594 183.722656 181.574219 183.425781 181.828125 C 183.089844 182.101562 182.625 181.546875 182.746094 179.378906 Z M 182.746094 179.378906 " fill-opacity="1" fill-rule="evenodd"/><path fill="#ffffff" d="M 186.367188 175 C 186.847656 176.136719 187.3125 177.300781 187.765625 178.5 C 188 179.09375 188.183594 179.703125 188.316406 180.324219 L 188.757812 182.199219 C 189.441406 184.71875 189.589844 187.332031 189.765625 190.007812 C 189.800781 195.316406 189.183594 200.882812 187.300781 206.140625 L 186.660156 208.144531 L 185.828125 210.066406 C 185.253906 211.34375 184.738281 212.65625 184.078125 213.90625 C 182.683594 216.355469 181.339844 218.859375 179.589844 221.109375 C 178.027344 223.484375 176.027344 225.523438 174.175781 227.671875 C 173.167969 228.671875 172.113281 229.625 171.085938 230.605469 C 170.5625 231.082031 170.066406 231.59375 169.523438 232.042969 L 167.84375 233.347656 C 163.460938 236.996094 158.257812 239.789062 152.863281 241.917969 L 148.753906 243.359375 C 147.363281 243.757812 145.941406 244.039062 144.542969 244.378906 L 142.441406 244.855469 L 140.3125 245.117188 C 138.890625 245.277344 137.484375 245.472656 136.082031 245.578125 C 133.257812 245.566406 130.480469 245.753906 127.773438 245.351562 C 126.425781 245.179688 125.078125 245.132812 123.777344 244.847656 L 119.929688 244.007812 C 118.65625 243.78125 117.460938 243.289062 116.265625 242.910156 C 115.085938 242.488281 113.898438 242.160156 112.792969 241.65625 L 109.5625 240.140625 C 109.042969 239.882812 108.515625 239.652344 108.015625 239.378906 L 106.578125 238.492188 L 108.183594 239.308594 L 109.871094 239.984375 L 113.289062 241.363281 C 114.464844 241.742188 115.667969 242.070312 116.871094 242.4375 L 118.6875 242.972656 C 119.296875 243.140625 119.925781 243.226562 120.546875 243.359375 L 124.328125 244.089844 C 125.609375 244.253906 126.90625 244.339844 128.207031 244.472656 L 130.171875 244.652344 C 130.828125 244.679688 131.484375 244.652344 132.148438 244.652344 L 136.140625 244.613281 L 140.148438 244.171875 L 142.164062 243.9375 L 144.15625 243.507812 L 148.164062 242.609375 L 152.082031 241.289062 L 154.050781 240.609375 L 155.941406 239.738281 C 157.199219 239.144531 158.488281 238.585938 159.726562 237.945312 C 162.109375 236.484375 164.613281 235.167969 166.785156 233.367188 L 168.472656 232.089844 L 169.3125 231.449219 L 170.089844 230.726562 L 173.179688 227.828125 C 174.1875 226.84375 175.058594 225.71875 176 224.667969 L 177.378906 223.058594 C 177.800781 222.496094 178.195312 221.90625 178.605469 221.332031 C 182.003906 216.820312 184.417969 211.652344 186.21875 206.425781 L 187.414062 202.449219 C 187.71875 201.109375 187.933594 199.746094 188.183594 198.40625 C 188.296875 197.734375 188.429688 197.070312 188.527344 196.398438 L 188.671875 194.363281 C 188.746094 193.011719 188.886719 191.679688 188.886719 190.339844 C 188.742188 187.660156 188.757812 185.027344 188.203125 182.457031 C 187.957031 181.171875 187.832031 179.894531 187.464844 178.660156 C 187.101562 177.421875 186.730469 176.214844 186.367188 175 Z M 186.367188 175 " fill-opacity="1" fill-rule="evenodd"/><path fill="#ffffff" d="M 169.5 224.898438 C 169.09375 224.832031 169.664062 223.441406 170.011719 223.441406 C 170.425781 223.488281 169.917969 224.957031 169.5 224.898438 Z M 169.5 224.898438 " fill-opacity="1" fill-rule="evenodd"/><path fill="#ffffff" d="M 184.496094 187.9375 C 184.09375 188.210938 183.96875 186.371094 184.007812 184.933594 C 183.898438 183.492188 184.007812 182.421875 184.46875 184.25 C 184.558594 184.171875 185 187.574219 184.496094 187.9375 Z M 184.496094 187.9375 " fill-opacity="1" fill-rule="evenodd"/><path fill="#ffffff" d="M 183.550781 176.964844 C 183.28125 177.238281 182.410156 176.023438 182.6875 175.738281 C 182.964844 175.457031 183.820312 176.675781 183.550781 176.964844 Z M 183.550781 176.964844 " fill-opacity="1" fill-rule="evenodd"/><path fill="#ffffff" d="M 70.402344 169.007812 C 70.773438 168.820312 70.792969 169.574219 70.640625 170.679688 C 70.523438 171.792969 70.085938 173.238281 69.9375 174.539062 C 69.511719 177.113281 68.984375 178.921875 69.261719 175.207031 C 69.261719 175.164062 69.277344 174.773438 69.300781 174.207031 C 69.3125 173.917969 69.332031 173.59375 69.347656 173.242188 C 69.402344 172.898438 69.457031 172.523438 69.519531 172.160156 C 69.765625 170.675781 70.089844 169.164062 70.402344 169.007812 Z M 70.402344 169.007812 " fill-opacity="1" fill-rule="evenodd"/><path fill="#ffffff" d="M 177.835938 214.539062 C 177.835938 214.539062 177.898438 214.375 178.03125 214.085938 L 178.589844 212.878906 L 179.398438 211.160156 C 179.679688 210.519531 179.902344 209.792969 180.171875 209.078125 C 180.441406 208.367188 180.699219 207.640625 180.949219 206.953125 L 181.320312 205.945312 L 181.578125 204.984375 C 181.894531 203.773438 182.144531 202.863281 182.234375 202.574219 C 182.445312 201.8125 182.605469 201.039062 182.722656 200.257812 C 182.867188 199.089844 183.039062 197.664062 183.253906 196.257812 C 183.398438 195.558594 183.414062 194.847656 183.476562 194.179688 C 183.535156 193.515625 183.609375 192.886719 183.699219 192.34375 C 183.878906 191.25 184.140625 190.457031 184.472656 190.246094 C 184.554688 190.203125 184.554688 191.472656 184.539062 192.894531 C 184.527344 194.3125 184.519531 195.886719 184.367188 196.351562 C 184.132812 197.484375 183.925781 198.511719 183.71875 199.507812 C 183.617188 200.003906 183.511719 200.496094 183.414062 200.980469 C 183.261719 201.457031 183.113281 201.929688 182.957031 202.414062 L 181.996094 205.464844 C 181.667969 206.566406 181.09375 207.675781 180.570312 208.996094 C 180.015625 210.675781 178.542969 214.421875 177.835938 214.539062 Z M 177.835938 214.539062 " fill-opacity="1" fill-rule="evenodd"/><g clip-path="url(#ce5011151a)"><path fill="#ffffff" d="M 68.152344 180.382812 C 68.707031 179.964844 68.761719 182.988281 68.671875 185.382812 C 68.792969 187.777344 68.671875 189.605469 68.183594 186.714844 C 67.980469 186.527344 67.707031 180.746094 68.152344 180.382812 Z M 68.152344 180.382812 " fill-opacity="1" fill-rule="evenodd"/></g><g clip-path="url(#9c955381da)"><path fill="#ffffff" d="M 68.152344 192.558594 C 67.628906 193.210938 70.332031 196.277344 69.636719 197.113281 C 69.183594 196.574219 68.792969 196 68.453125 195.382812 C 67.933594 194.421875 67.5625 193.25 68.152344 192.558594 Z M 68.152344 192.558594 " fill-opacity="1" fill-rule="evenodd"/></g><path fill="#ffffff" d="M 70.023438 203.03125 C 70.242188 202.699219 71.035156 203.660156 70.933594 203.84375 C 70.722656 204.183594 69.894531 203.230469 70.023438 203.03125 Z M 70.023438 203.03125 " fill-opacity="1" fill-rule="evenodd"/><path fill="#ffffff" d="M 71.144531 206.019531 C 71.347656 205.65625 72.777344 207.269531 72.527344 207.75 C 72.332031 208.144531 70.890625 206.5 71.144531 206.019531 Z M 71.144531 206.019531 " fill-opacity="1" fill-rule="evenodd"/><path fill="#ffffff" d="M 73.019531 210.417969 C 73.09375 210.300781 74.289062 212.988281 75.757812 215.851562 L 78.152344 219.886719 L 78.664062 220.742188 C 78.847656 220.992188 79.019531 221.226562 79.171875 221.4375 L 79.871094 222.394531 C 83.328125 227.050781 77.351562 219.679688 76.738281 218.089844 C 76.59375 217.84375 76.21875 217.367188 75.742188 216.769531 L 74.96875 215.777344 C 74.722656 215.410156 74.496094 215.011719 74.261719 214.609375 C 73.347656 213.003906 72.589844 211.277344 73.019531 210.417969 Z M 73.019531 210.417969 " fill-opacity="1" fill-rule="evenodd"/><path fill="#ffffff" d="M 80.695312 222.414062 C 80.769531 222.042969 81.894531 222.609375 81.847656 222.828125 C 81.78125 223.210938 80.65625 222.636719 80.695312 222.414062 Z M 80.695312 222.414062 " fill-opacity="1" fill-rule="evenodd"/><path fill="#ffffff" d="M 186.367188 175 C 185.296875 174.425781 185.296875 173.527344 185.519531 173.207031 C 185.738281 172.886719 186.433594 173.136719 186.367188 175 Z M 186.367188 175 " fill-opacity="1" fill-rule="evenodd"/><path fill="#ffffff" d="M 80.957031 225.675781 C 80.949219 224.894531 86.335938 230.527344 82.433594 227.261719 C 82.316406 227.164062 81.925781 226.851562 81.566406 226.527344 C 81.210938 226.203125 80.9375 225.820312 80.957031 225.675781 Z M 80.957031 225.675781 " fill-opacity="1" fill-rule="evenodd"/><path fill="#ffffff" d="M 86.289062 231.847656 C 86.289062 230.953125 92.164062 236.121094 87.96875 233.230469 C 87.71875 233.0625 86.289062 232.140625 86.289062 231.847656 Z M 86.289062 231.847656 " fill-opacity="1" fill-rule="evenodd"/><path fill="#ffffff" d="M 90.59375 236.078125 C 90.59375 236.078125 93.164062 236.640625 93.214844 237.085938 C 93.089844 237.132812 92.964844 237.164062 92.835938 237.175781 C 92.550781 237.222656 92.265625 237.230469 91.980469 237.210938 C 91.347656 237.15625 90.675781 236.882812 90.59375 236.078125 Z M 90.59375 236.078125 " fill-opacity="1" fill-rule="evenodd"/><g fill="#ffffff" fill-opacity="1"><g transform="translate(118.672384, 134.246173)"><g><path d="M 12.171875 -17.875 L 12.328125 -15.046875 L 4.828125 -14.640625 L 5.078125 -10.09375 L 11.890625 -10.453125 L 12.046875 -7.640625 L 5.234375 -7.28125 L 5.609375 -0.3125 L 2.234375 -0.125 L 1.296875 -17.28125 Z M 12.171875 -17.875 "/></g></g></g><g fill="#ffffff" fill-opacity="1"><g transform="translate(131.505959, 133.747167)"><g/></g></g><g fill="#ffffff" fill-opacity="1"><g transform="translate(136.060727, 133.592079)"><g><path d="M 16.078125 3.6875 L 12.59375 2.890625 L 12.21875 -1.28125 L 5.8125 -2.75 L 3.65625 0.84375 L 0.265625 0.0625 L 9.890625 -15.359375 L 14.140625 -14.390625 Z M 11.015625 -11.4375 L 7.3125 -5.3125 L 11.9375 -4.25 L 11.296875 -11.375 Z M 11.015625 -11.4375 "/></g></g></g><g fill="#ffffff" fill-opacity="1"><g transform="translate(151.13488, 137.380787)"><g/></g></g><g fill="#ffffff" fill-opacity="1"><g transform="translate(155.574383, 138.717021)"><g><path d="M 6.53125 3.953125 C 5.476562 3.359375 4.617188 2.703125 3.953125 1.984375 C 3.296875 1.273438 2.8125 0.566406 2.5 -0.140625 C 2.195312 -0.859375 2.035156 -1.546875 2.015625 -2.203125 L 4.78125 -3.28125 L 5.046875 -3.125 C 5.117188 -2.21875 5.390625 -1.367188 5.859375 -0.578125 C 6.328125 0.203125 7.03125 0.859375 7.96875 1.390625 C 8.757812 1.828125 9.445312 1.988281 10.03125 1.875 C 10.625 1.769531 11.085938 1.425781 11.421875 0.84375 C 11.617188 0.488281 11.71875 0.15625 11.71875 -0.15625 C 11.726562 -0.476562 11.628906 -0.804688 11.421875 -1.140625 C 11.210938 -1.484375 10.890625 -1.863281 10.453125 -2.28125 L 8.78125 -3.796875 C 7.601562 -4.859375 6.882812 -5.925781 6.625 -7 C 6.363281 -8.082031 6.554688 -9.195312 7.203125 -10.34375 C 7.671875 -11.195312 8.296875 -11.820312 9.078125 -12.21875 C 9.867188 -12.625 10.765625 -12.773438 11.765625 -12.671875 C 12.773438 -12.578125 13.847656 -12.21875 14.984375 -11.59375 C 16.128906 -10.945312 17.03125 -10.238281 17.6875 -9.46875 C 18.34375 -8.707031 18.773438 -7.851562 18.984375 -6.90625 L 16.40625 -5.71875 L 16.140625 -5.859375 C 15.960938 -6.535156 15.664062 -7.140625 15.25 -7.671875 C 14.832031 -8.203125 14.269531 -8.664062 13.5625 -9.0625 C 12.75 -9.507812 12.046875 -9.707031 11.453125 -9.65625 C 10.867188 -9.613281 10.4375 -9.335938 10.15625 -8.828125 C 9.882812 -8.359375 9.820312 -7.898438 9.96875 -7.453125 C 10.113281 -7.015625 10.503906 -6.507812 11.140625 -5.9375 L 12.890625 -4.421875 C 14.160156 -3.296875 14.921875 -2.179688 15.171875 -1.078125 C 15.421875 0.0234375 15.210938 1.164062 14.546875 2.34375 C 14.023438 3.28125 13.363281 3.984375 12.5625 4.453125 C 11.769531 4.929688 10.859375 5.128906 9.828125 5.046875 C 8.804688 4.972656 7.707031 4.609375 6.53125 3.953125 Z M 6.53125 3.953125 "/></g></g></g><g fill="#ffffff" fill-opacity="1"><g transform="translate(167.377538, 145.604169)"><g/></g></g><g fill="#ffffff" fill-opacity="1"><g transform="translate(171.295953, 148.122889)"><g><path d="M 21.890625 -2.53125 L 19.875 -0.5 L 16.34375 -3.984375 L 6.265625 6.203125 L 3.859375 3.828125 L 13.9375 -6.359375 L 10.40625 -9.859375 L 12.421875 -11.890625 Z M 21.890625 -2.53125 "/></g></g></g><g fill="#ffffff" fill-opacity="1"><g transform="translate(197.461544, 179.628183)"><g><path d="M 6.234375 -10.703125 L 3.875 -10.703125 L 3.875 -8.25 L 5.890625 -8.25 L 5.890625 -5.65625 L 3.875 -5.65625 L 3.875 0 L 0.40625 0 L 0.40625 -13.40625 L 6.234375 -13.40625 Z M 6.234375 -10.703125 "/></g></g></g><g fill="#ffffff" fill-opacity="1"><g transform="translate(203.713119, 179.628183)"><g><path d="M 4.359375 -11.28125 C 5.617188 -11.28125 6.585938 -10.957031 7.265625 -10.3125 C 7.953125 -9.675781 8.296875 -8.8125 8.296875 -7.71875 L 8.296875 -3.28125 C 8.296875 -2.195312 7.953125 -1.332031 7.265625 -0.6875 C 6.585938 -0.0390625 5.617188 0.28125 4.359375 0.28125 C 3.085938 0.28125 2.109375 -0.0390625 1.421875 -0.6875 C 0.742188 -1.332031 0.40625 -2.195312 0.40625 -3.28125 L 0.40625 -7.71875 C 0.40625 -8.8125 0.742188 -9.675781 1.421875 -10.3125 C 2.109375 -10.957031 3.085938 -11.28125 4.359375 -11.28125 Z M 3.75 -8.5625 L 3.75 -2.671875 C 3.75 -2.460938 3.804688 -2.289062 3.921875 -2.15625 C 4.035156 -2.03125 4.179688 -1.96875 4.359375 -1.96875 C 4.535156 -1.96875 4.675781 -2.03125 4.78125 -2.15625 C 4.894531 -2.289062 4.953125 -2.460938 4.953125 -2.671875 L 4.953125 -8.5625 C 4.953125 -8.757812 4.894531 -8.925781 4.78125 -9.0625 C 4.675781 -9.195312 4.535156 -9.265625 4.359375 -9.265625 C 4.140625 -9.265625 3.984375 -9.1875 3.890625 -9.03125 C 3.796875 -8.875 3.75 -8.71875 3.75 -8.5625 Z M 3.75 -8.5625 "/></g></g></g><g fill="#ffffff" fill-opacity="1"><g transform="translate(212.424018, 179.628183)"><g><path d="M 5.84375 -11.28125 L 5.84375 -7.28125 C 5.59375 -7.3125 5.40625 -7.328125 5.28125 -7.328125 C 4.800781 -7.328125 4.441406 -7.1875 4.203125 -6.90625 C 3.960938 -6.625 3.84375 -6.296875 3.84375 -5.921875 L 3.84375 0 L 0.5 0 L 0.5 -11 L 3.734375 -11 L 3.734375 -9.59375 L 3.78125 -9.59375 C 3.875 -10.007812 4.128906 -10.382812 4.546875 -10.71875 C 4.960938 -11.0625 5.394531 -11.25 5.84375 -11.28125 Z M 5.84375 -11.28125 "/></g></g></g><g fill="#ffffff" fill-opacity="1"><g transform="translate(218.337672, 179.628183)"><g><path d="M 4.359375 -11.28125 C 5.046875 -11.28125 5.671875 -11.140625 6.234375 -10.859375 C 6.796875 -10.578125 7.242188 -10.164062 7.578125 -9.625 C 7.910156 -9.09375 8.078125 -8.457031 8.078125 -7.71875 L 8.078125 -5.328125 L 3.75 -5.328125 L 3.75 -2.40625 C 3.75 -1.96875 3.921875 -1.75 4.265625 -1.75 C 4.648438 -1.75 4.84375 -1.992188 4.84375 -2.484375 L 4.84375 -4.484375 L 8.078125 -4.484375 L 8.078125 -3.28125 C 8.078125 -2.207031 7.757812 -1.34375 7.125 -0.6875 C 6.488281 -0.0390625 5.566406 0.28125 4.359375 0.28125 C 3.078125 0.28125 2.097656 -0.0390625 1.421875 -0.6875 C 0.742188 -1.332031 0.40625 -2.195312 0.40625 -3.28125 L 0.40625 -7.71875 C 0.40625 -8.820312 0.75 -9.691406 1.4375 -10.328125 C 2.132812 -10.960938 3.109375 -11.28125 4.359375 -11.28125 Z M 3.75 -8.609375 L 3.75 -7.140625 L 4.84375 -7.140625 L 4.84375 -8.53125 C 4.84375 -9.019531 4.648438 -9.265625 4.265625 -9.265625 C 3.921875 -9.265625 3.75 -9.046875 3.75 -8.609375 Z M 3.75 -8.609375 "/></g></g></g><g fill="#ffffff" fill-opacity="1"><g transform="translate(226.673101, 179.628183)"><g><path d="M 3.75 -11.71875 L 0.40625 -11.71875 L 0.40625 -13.40625 L 3.75 -13.40625 Z M 3.75 0 L 0.40625 0 L 0.40625 -11 L 3.75 -11 Z M 3.75 0 "/></g></g></g><g fill="#ffffff" fill-opacity="1"><g transform="translate(230.840822, 179.628183)"><g><path d="M 2.859375 -11.28125 C 3.296875 -11.28125 3.6875 -11.195312 4.03125 -11.03125 C 4.375 -10.863281 4.703125 -10.5625 5.015625 -10.125 L 5.046875 -10.125 L 5.046875 -11 L 8.28125 -11 L 8.28125 -2.015625 C 8.28125 -0.796875 7.925781 0.109375 7.21875 0.703125 C 6.507812 1.304688 5.46875 1.609375 4.09375 1.609375 C 2.894531 1.609375 2 1.382812 1.40625 0.9375 C 0.820312 0.488281 0.53125 -0.1875 0.53125 -1.09375 L 3.75 -1.09375 L 3.75 -0.8125 C 3.75 -0.632812 3.785156 -0.46875 3.859375 -0.3125 C 3.941406 -0.15625 4.082031 -0.078125 4.28125 -0.078125 C 4.519531 -0.078125 4.6875 -0.128906 4.78125 -0.234375 C 4.882812 -0.347656 4.9375 -0.53125 4.9375 -0.78125 L 4.9375 -2.359375 C 4.351562 -1.785156 3.660156 -1.5 2.859375 -1.5 C 2.109375 -1.5 1.507812 -1.765625 1.0625 -2.296875 C 0.625 -2.828125 0.40625 -3.539062 0.40625 -4.4375 L 0.40625 -8.34375 C 0.40625 -9.25 0.617188 -9.960938 1.046875 -10.484375 C 1.484375 -11.015625 2.085938 -11.28125 2.859375 -11.28125 Z M 3.640625 -8.203125 L 3.640625 -4.46875 C 3.640625 -4.269531 3.695312 -4.097656 3.8125 -3.953125 C 3.925781 -3.816406 4.09375 -3.75 4.3125 -3.75 C 4.5 -3.75 4.648438 -3.816406 4.765625 -3.953125 C 4.878906 -4.085938 4.9375 -4.257812 4.9375 -4.46875 L 4.9375 -8.203125 C 4.9375 -8.429688 4.878906 -8.609375 4.765625 -8.734375 C 4.648438 -8.859375 4.492188 -8.921875 4.296875 -8.921875 C 4.078125 -8.921875 3.910156 -8.847656 3.796875 -8.703125 C 3.691406 -8.554688 3.640625 -8.390625 3.640625 -8.203125 Z M 3.640625 -8.203125 "/></g></g></g><g fill="#ffffff" fill-opacity="1"><g transform="translate(239.532953, 179.628183)"><g><path d="M 5.921875 -11.28125 C 6.691406 -11.28125 7.257812 -11.015625 7.625 -10.484375 C 8 -9.960938 8.1875 -9.28125 8.1875 -8.4375 L 8.1875 0 L 4.84375 0 L 4.84375 -8.28125 C 4.84375 -8.445312 4.804688 -8.613281 4.734375 -8.78125 C 4.660156 -8.945312 4.519531 -9.03125 4.3125 -9.03125 C 4 -9.03125 3.84375 -8.785156 3.84375 -8.296875 L 3.84375 0 L 0.5 0 L 0.5 -11 L 3.84375 -11 L 3.84375 -10.15625 L 3.890625 -10.15625 C 4.066406 -10.488281 4.332031 -10.757812 4.6875 -10.96875 C 5.050781 -11.175781 5.460938 -11.28125 5.921875 -11.28125 Z M 5.921875 -11.28125 "/></g></g></g><g fill="#ffffff" fill-opacity="1"><g transform="translate(248.225083, 179.628183)"><g/></g></g><g fill="#ffffff" fill-opacity="1"><g transform="translate(252.730725, 179.628183)"><g><path d="M 8.609375 0 L 5.140625 0 L 4.984375 -2.359375 L 3.71875 -2.359375 L 3.546875 0 L 0.09375 0 L 1.78125 -13.40625 L 6.765625 -13.40625 Z M 3.71875 -4.734375 L 4.921875 -4.734375 L 4.3125 -11.046875 L 4.28125 -11.046875 Z M 3.71875 -4.734375 "/></g></g></g><g fill="#ffffff" fill-opacity="1"><g transform="translate(261.422855, 179.628183)"><g><path d="M 5.046875 -11.71875 L 4.453125 -11.71875 C 3.859375 -11.71875 3.539062 -11.476562 3.5 -11 L 5.125 -11 L 5.125 -9.203125 L 4.125 -9.203125 L 4.125 0 L 0.78125 0 L 0.78125 -9.203125 L 0.09375 -9.203125 L 0.09375 -11 L 0.78125 -11 C 0.8125 -11.625 0.90625 -12.101562 1.0625 -12.4375 C 1.21875 -12.78125 1.484375 -13.023438 1.859375 -13.171875 C 2.234375 -13.328125 2.765625 -13.40625 3.453125 -13.40625 L 5.046875 -13.40625 Z M 5.046875 -11.71875 "/></g></g></g><g fill="#ffffff" fill-opacity="1"><g transform="translate(266.641887, 179.628183)"><g><path d="M 5.046875 -11.71875 L 4.453125 -11.71875 C 3.859375 -11.71875 3.539062 -11.476562 3.5 -11 L 5.125 -11 L 5.125 -9.203125 L 4.125 -9.203125 L 4.125 0 L 0.78125 0 L 0.78125 -9.203125 L 0.09375 -9.203125 L 0.09375 -11 L 0.78125 -11 C 0.8125 -11.625 0.90625 -12.101562 1.0625 -12.4375 C 1.21875 -12.78125 1.484375 -13.023438 1.859375 -13.171875 C 2.234375 -13.328125 2.765625 -13.40625 3.453125 -13.40625 L 5.046875 -13.40625 Z M 5.046875 -11.71875 "/></g></g></g><g fill="#ffffff" fill-opacity="1"><g transform="translate(271.860919, 179.628183)"><g><path d="M 4.09375 -11.28125 C 5.289062 -11.28125 6.226562 -11.050781 6.90625 -10.59375 C 7.582031 -10.144531 7.921875 -9.316406 7.921875 -8.109375 L 7.921875 0 L 4.6875 0 L 4.6875 -0.625 C 4.375 -0.3125 4.035156 -0.0820312 3.671875 0.0625 C 3.304688 0.207031 2.945312 0.28125 2.59375 0.28125 C 1.863281 0.28125 1.316406 0.0625 0.953125 -0.375 C 0.585938 -0.820312 0.40625 -1.367188 0.40625 -2.015625 L 0.40625 -3.703125 C 0.40625 -4.128906 0.445312 -4.457031 0.53125 -4.6875 C 0.625 -4.925781 0.816406 -5.144531 1.109375 -5.34375 C 1.398438 -5.550781 1.859375 -5.765625 2.484375 -5.984375 C 3.109375 -6.222656 3.566406 -6.414062 3.859375 -6.5625 C 4.148438 -6.71875 4.34375 -6.859375 4.4375 -6.984375 C 4.53125 -7.117188 4.578125 -7.289062 4.578125 -7.5 L 4.578125 -8.984375 C 4.578125 -9.117188 4.53125 -9.253906 4.4375 -9.390625 C 4.34375 -9.523438 4.203125 -9.59375 4.015625 -9.59375 C 3.859375 -9.59375 3.734375 -9.535156 3.640625 -9.421875 C 3.554688 -9.316406 3.515625 -9.171875 3.515625 -8.984375 L 3.515625 -6.765625 L 0.40625 -6.765625 L 0.40625 -8.015625 C 0.40625 -9.222656 0.722656 -10.066406 1.359375 -10.546875 C 1.992188 -11.035156 2.90625 -11.28125 4.09375 -11.28125 Z M 3.515625 -3.609375 L 3.515625 -2.390625 C 3.515625 -2.242188 3.550781 -2.109375 3.625 -1.984375 C 3.707031 -1.859375 3.832031 -1.796875 4 -1.796875 C 4.1875 -1.796875 4.328125 -1.859375 4.421875 -1.984375 C 4.523438 -2.109375 4.578125 -2.226562 4.578125 -2.34375 L 4.578125 -5.234375 C 4.273438 -5.046875 4.019531 -4.820312 3.8125 -4.5625 C 3.613281 -4.3125 3.515625 -3.992188 3.515625 -3.609375 Z M 3.515625 -3.609375 "/></g></g></g><g fill="#ffffff" fill-opacity="1"><g transform="translate(280.196349, 179.628183)"><g><path d="M 3.75 -11.71875 L 0.40625 -11.71875 L 0.40625 -13.40625 L 3.75 -13.40625 Z M 3.75 0 L 0.40625 0 L 0.40625 -11 L 3.75 -11 Z M 3.75 0 "/></g></g></g><g fill="#ffffff" fill-opacity="1"><g transform="translate(284.364069, 179.628183)"><g><path d="M 5.84375 -11.28125 L 5.84375 -7.28125 C 5.59375 -7.3125 5.40625 -7.328125 5.28125 -7.328125 C 4.800781 -7.328125 4.441406 -7.1875 4.203125 -6.90625 C 3.960938 -6.625 3.84375 -6.296875 3.84375 -5.921875 L 3.84375 0 L 0.5 0 L 0.5 -11 L 3.734375 -11 L 3.734375 -9.59375 L 3.78125 -9.59375 C 3.875 -10.007812 4.128906 -10.382812 4.546875 -10.71875 C 4.960938 -11.0625 5.394531 -11.25 5.84375 -11.28125 Z M 5.84375 -11.28125 "/></g></g></g><g fill="#ffffff" fill-opacity="1"><g transform="translate(290.277723, 179.628183)"><g><path d="M 4.078125 -11.28125 C 5.085938 -11.28125 5.925781 -11.046875 6.59375 -10.578125 C 7.269531 -10.109375 7.609375 -9.429688 7.609375 -8.546875 L 7.609375 -7.453125 L 4.5 -7.453125 L 4.5 -8.53125 C 4.5 -8.9375 4.332031 -9.140625 4 -9.140625 C 3.632812 -9.140625 3.453125 -8.9375 3.453125 -8.53125 L 3.453125 -8.03125 C 3.453125 -7.8125 3.585938 -7.597656 3.859375 -7.390625 C 4.140625 -7.191406 4.546875 -6.957031 5.078125 -6.6875 L 5.453125 -6.5 C 6.085938 -6.15625 6.5625 -5.84375 6.875 -5.5625 C 7.1875 -5.28125 7.40625 -4.9375 7.53125 -4.53125 C 7.664062 -4.132812 7.734375 -3.601562 7.734375 -2.9375 C 7.734375 -1.832031 7.414062 -1.019531 6.78125 -0.5 C 6.144531 0.0195312 5.144531 0.28125 3.78125 0.28125 C 2.632812 0.28125 1.757812 0.0546875 1.15625 -0.390625 C 0.5625 -0.847656 0.265625 -1.613281 0.265625 -2.6875 L 0.265625 -3.96875 L 3.359375 -3.96875 L 3.359375 -2.4375 C 3.359375 -2.257812 3.40625 -2.117188 3.5 -2.015625 C 3.601562 -1.910156 3.738281 -1.859375 3.90625 -1.859375 C 4.09375 -1.859375 4.238281 -1.914062 4.34375 -2.03125 C 4.445312 -2.15625 4.5 -2.296875 4.5 -2.453125 L 4.5 -3.09375 C 4.5 -3.382812 4.378906 -3.625 4.140625 -3.8125 C 3.910156 -4.007812 3.582031 -4.21875 3.15625 -4.4375 L 2.671875 -4.671875 C 1.898438 -5.066406 1.320312 -5.5 0.9375 -5.96875 C 0.550781 -6.445312 0.359375 -7.082031 0.359375 -7.875 C 0.359375 -9.050781 0.660156 -9.910156 1.265625 -10.453125 C 1.867188 -11.003906 2.804688 -11.28125 4.078125 -11.28125 Z M 4.078125 -11.28125 "/></g></g></g><g fill="#ffffff" fill-opacity="1"><g transform="translate(205.477169, 205.697432)"><g><path d="M 4.03125 -13.6875 C 6.570312 -13.6875 7.84375 -12.726562 7.84375 -10.8125 L 7.84375 -9.484375 L 4.75 -9.484375 L 4.75 -10.65625 C 4.75 -11.25 4.523438 -11.546875 4.078125 -11.546875 C 3.691406 -11.546875 3.5 -11.269531 3.5 -10.71875 L 3.5 -10.046875 C 3.5 -9.796875 3.582031 -9.5625 3.75 -9.34375 C 3.925781 -9.125 4.113281 -8.945312 4.3125 -8.8125 C 4.519531 -8.675781 4.84375 -8.472656 5.28125 -8.203125 C 5.8125 -7.878906 6.269531 -7.5625 6.65625 -7.25 C 7.039062 -6.9375 7.375 -6.53125 7.65625 -6.03125 C 7.9375 -5.539062 8.078125 -4.957031 8.078125 -4.28125 L 8.078125 -3.078125 C 8.078125 -1.816406 7.71875 -0.941406 7 -0.453125 C 6.28125 0.0351562 5.289062 0.28125 4.03125 0.28125 C 2.65625 0.28125 1.6875 0.00390625 1.125 -0.546875 C 0.5625 -1.097656 0.28125 -1.945312 0.28125 -3.09375 L 0.28125 -4.890625 L 3.515625 -4.890625 L 3.515625 -2.671875 C 3.515625 -2.128906 3.707031 -1.859375 4.09375 -1.859375 C 4.300781 -1.859375 4.457031 -1.941406 4.5625 -2.109375 C 4.675781 -2.273438 4.734375 -2.5625 4.734375 -2.96875 L 4.734375 -3.6875 C 4.734375 -4.019531 4.640625 -4.316406 4.453125 -4.578125 C 4.273438 -4.847656 4.078125 -5.0625 3.859375 -5.21875 C 3.640625 -5.382812 3.332031 -5.59375 2.9375 -5.84375 C 2.394531 -6.164062 1.941406 -6.46875 1.578125 -6.75 C 1.222656 -7.039062 0.914062 -7.414062 0.65625 -7.875 C 0.394531 -8.34375 0.265625 -8.898438 0.265625 -9.546875 L 0.265625 -10.4375 C 0.265625 -12.601562 1.519531 -13.6875 4.03125 -13.6875 Z M 4.03125 -13.6875 "/></g></g></g><g fill="#ffffff" fill-opacity="1"><g transform="translate(213.812598, 205.697432)"><g><path d="M 4.359375 -11.28125 C 5.046875 -11.28125 5.671875 -11.140625 6.234375 -10.859375 C 6.796875 -10.578125 7.242188 -10.164062 7.578125 -9.625 C 7.910156 -9.09375 8.078125 -8.457031 8.078125 -7.71875 L 8.078125 -5.328125 L 3.75 -5.328125 L 3.75 -2.40625 C 3.75 -1.96875 3.921875 -1.75 4.265625 -1.75 C 4.648438 -1.75 4.84375 -1.992188 4.84375 -2.484375 L 4.84375 -4.484375 L 8.078125 -4.484375 L 8.078125 -3.28125 C 8.078125 -2.207031 7.757812 -1.34375 7.125 -0.6875 C 6.488281 -0.0390625 5.566406 0.28125 4.359375 0.28125 C 3.078125 0.28125 2.097656 -0.0390625 1.421875 -0.6875 C 0.742188 -1.332031 0.40625 -2.195312 0.40625 -3.28125 L 0.40625 -7.71875 C 0.40625 -8.820312 0.75 -9.691406 1.4375 -10.328125 C 2.132812 -10.960938 3.109375 -11.28125 4.359375 -11.28125 Z M 3.75 -8.609375 L 3.75 -7.140625 L 4.84375 -7.140625 L 4.84375 -8.53125 C 4.84375 -9.019531 4.648438 -9.265625 4.265625 -9.265625 C 3.921875 -9.265625 3.75 -9.046875 3.75 -8.609375 Z M 3.75 -8.609375 "/></g></g></g><g fill="#ffffff" fill-opacity="1"><g transform="translate(222.148028, 205.697432)"><g><path d="M 5.84375 -11.28125 L 5.84375 -7.28125 C 5.59375 -7.3125 5.40625 -7.328125 5.28125 -7.328125 C 4.800781 -7.328125 4.441406 -7.1875 4.203125 -6.90625 C 3.960938 -6.625 3.84375 -6.296875 3.84375 -5.921875 L 3.84375 0 L 0.5 0 L 0.5 -11 L 3.734375 -11 L 3.734375 -9.59375 L 3.78125 -9.59375 C 3.875 -10.007812 4.128906 -10.382812 4.546875 -10.71875 C 4.960938 -11.0625 5.394531 -11.25 5.84375 -11.28125 Z M 5.84375 -11.28125 "/></g></g></g><g fill="#ffffff" fill-opacity="1"><g transform="translate(228.061682, 205.697432)"><g><path d="M 4 -2.25 L 4.03125 -2.25 L 4.671875 -11 L 7.609375 -11 L 6.046875 0 L 1.671875 0 L 0.03125 -11 L 3.140625 -11 Z M 4 -2.25 "/></g></g></g><g fill="#ffffff" fill-opacity="1"><g transform="translate(235.702489, 205.697432)"><g><path d="M 3.75 -11.71875 L 0.40625 -11.71875 L 0.40625 -13.40625 L 3.75 -13.40625 Z M 3.75 0 L 0.40625 0 L 0.40625 -11 L 3.75 -11 Z M 3.75 0 "/></g></g></g><g fill="#ffffff" fill-opacity="1"><g transform="translate(239.87021, 205.697432)"><g><path d="M 4.359375 -11.28125 C 5.585938 -11.28125 6.515625 -10.953125 7.140625 -10.296875 C 7.765625 -9.648438 8.078125 -8.820312 8.078125 -7.8125 L 8.078125 -6.8125 L 4.84375 -6.8125 L 4.84375 -8.671875 C 4.84375 -8.890625 4.796875 -9.039062 4.703125 -9.125 C 4.617188 -9.21875 4.484375 -9.265625 4.296875 -9.265625 C 4.117188 -9.265625 3.984375 -9.21875 3.890625 -9.125 C 3.796875 -9.039062 3.75 -8.890625 3.75 -8.671875 L 3.75 -2.53125 C 3.75 -2.226562 3.800781 -2.019531 3.90625 -1.90625 C 4.007812 -1.800781 4.160156 -1.75 4.359375 -1.75 C 4.566406 -1.75 4.71875 -1.816406 4.8125 -1.953125 C 4.90625 -2.085938 4.953125 -2.300781 4.953125 -2.59375 L 4.953125 -4.546875 L 8.1875 -4.546875 L 8.1875 -3.90625 C 8.1875 -2.488281 7.875 -1.4375 7.25 -0.75 C 6.625 -0.0625 5.660156 0.28125 4.359375 0.28125 C 3.078125 0.28125 2.097656 -0.0390625 1.421875 -0.6875 C 0.742188 -1.332031 0.40625 -2.195312 0.40625 -3.28125 L 0.40625 -7.71875 C 0.40625 -8.8125 0.742188 -9.675781 1.421875 -10.3125 C 2.109375 -10.957031 3.085938 -11.28125 4.359375 -11.28125 Z M 4.359375 -11.28125 "/></g></g></g><g fill="#ffffff" fill-opacity="1"><g transform="translate(248.205639, 205.697432)"><g><path d="M 4.359375 -11.28125 C 5.046875 -11.28125 5.671875 -11.140625 6.234375 -10.859375 C 6.796875 -10.578125 7.242188 -10.164062 7.578125 -9.625 C 7.910156 -9.09375 8.078125 -8.457031 8.078125 -7.71875 L 8.078125 -5.328125 L 3.75 -5.328125 L 3.75 -2.40625 C 3.75 -1.96875 3.921875 -1.75 4.265625 -1.75 C 4.648438 -1.75 4.84375 -1.992188 4.84375 -2.484375 L 4.84375 -4.484375 L 8.078125 -4.484375 L 8.078125 -3.28125 C 8.078125 -2.207031 7.757812 -1.34375 7.125 -0.6875 C 6.488281 -0.0390625 5.566406 0.28125 4.359375 0.28125 C 3.078125 0.28125 2.097656 -0.0390625 1.421875 -0.6875 C 0.742188 -1.332031 0.40625 -2.195312 0.40625 -3.28125 L 0.40625 -7.71875 C 0.40625 -8.820312 0.75 -9.691406 1.4375 -10.328125 C 2.132812 -10.960938 3.109375 -11.28125 4.359375 -11.28125 Z M 3.75 -8.609375 L 3.75 -7.140625 L 4.84375 -7.140625 L 4.84375 -8.53125 C 4.84375 -9.019531 4.648438 -9.265625 4.265625 -9.265625 C 3.921875 -9.265625 3.75 -9.046875 3.75 -8.609375 Z M 3.75 -8.609375 "/></g></g></g><g fill="#ffffff" fill-opacity="1"><g transform="translate(256.541069, 205.697432)"><g/></g></g><g fill="#ffffff" fill-opacity="1"><g transform="translate(261.046711, 205.697432)"><g><path d="M 7.59375 -10.703125 L 5.546875 -10.703125 L 5.546875 0 L 2.078125 0 L 2.078125 -10.703125 L 0.03125 -10.703125 L 0.03125 -13.40625 L 7.59375 -13.40625 Z M 7.59375 -10.703125 "/></g></g></g><g fill="#ffffff" fill-opacity="1"><g transform="translate(268.66875, 205.697432)"><g><path d="M 4.359375 -11.28125 C 5.617188 -11.28125 6.585938 -10.957031 7.265625 -10.3125 C 7.953125 -9.675781 8.296875 -8.8125 8.296875 -7.71875 L 8.296875 -3.28125 C 8.296875 -2.195312 7.953125 -1.332031 7.265625 -0.6875 C 6.585938 -0.0390625 5.617188 0.28125 4.359375 0.28125 C 3.085938 0.28125 2.109375 -0.0390625 1.421875 -0.6875 C 0.742188 -1.332031 0.40625 -2.195312 0.40625 -3.28125 L 0.40625 -7.71875 C 0.40625 -8.8125 0.742188 -9.675781 1.421875 -10.3125 C 2.109375 -10.957031 3.085938 -11.28125 4.359375 -11.28125 Z M 3.75 -8.5625 L 3.75 -2.671875 C 3.75 -2.460938 3.804688 -2.289062 3.921875 -2.15625 C 4.035156 -2.03125 4.179688 -1.96875 4.359375 -1.96875 C 4.535156 -1.96875 4.675781 -2.03125 4.78125 -2.15625 C 4.894531 -2.289062 4.953125 -2.460938 4.953125 -2.671875 L 4.953125 -8.5625 C 4.953125 -8.757812 4.894531 -8.925781 4.78125 -9.0625 C 4.675781 -9.195312 4.535156 -9.265625 4.359375 -9.265625 C 4.140625 -9.265625 3.984375 -9.1875 3.890625 -9.03125 C 3.796875 -8.875 3.75 -8.71875 3.75 -8.5625 Z M 3.75 -8.5625 "/></g></g></g><g fill="#ffffff" fill-opacity="1"><g transform="translate(277.379649, 205.697432)"><g><path d="M 4.359375 -11.28125 C 5.617188 -11.28125 6.585938 -10.957031 7.265625 -10.3125 C 7.953125 -9.675781 8.296875 -8.8125 8.296875 -7.71875 L 8.296875 -3.28125 C 8.296875 -2.195312 7.953125 -1.332031 7.265625 -0.6875 C 6.585938 -0.0390625 5.617188 0.28125 4.359375 0.28125 C 3.085938 0.28125 2.109375 -0.0390625 1.421875 -0.6875 C 0.742188 -1.332031 0.40625 -2.195312 0.40625 -3.28125 L 0.40625 -7.71875 C 0.40625 -8.8125 0.742188 -9.675781 1.421875 -10.3125 C 2.109375 -10.957031 3.085938 -11.28125 4.359375 -11.28125 Z M 3.75 -8.5625 L 3.75 -2.671875 C 3.75 -2.460938 3.804688 -2.289062 3.921875 -2.15625 C 4.035156 -2.03125 4.179688 -1.96875 4.359375 -1.96875 C 4.535156 -1.96875 4.675781 -2.03125 4.78125 -2.15625 C 4.894531 -2.289062 4.953125 -2.460938 4.953125 -2.671875 L 4.953125 -8.5625 C 4.953125 -8.757812 4.894531 -8.925781 4.78125 -9.0625 C 4.675781 -9.195312 4.535156 -9.265625 4.359375 -9.265625 C 4.140625 -9.265625 3.984375 -9.1875 3.890625 -9.03125 C 3.796875 -8.875 3.75 -8.71875 3.75 -8.5625 Z M 3.75 -8.5625 "/></g></g></g><g fill="#ffffff" fill-opacity="1"><g transform="translate(286.090548, 205.697432)"><g><path d="M 3.75 0 L 0.40625 0 L 0.40625 -13.40625 L 3.75 -13.40625 Z M 3.75 0 "/></g></g></g></svg>